<?xml version="1.0" encoding="UTF-8"?>
<svg version="1.1" xmlns="http://www.w3.org/2000/svg" width="700" height="980">
<path d="M0 0 C9.45695997 6.52893967 16.70044096 15.72588318 19.39247161 27.01616232 C19.87235865 29.88592579 19.97117994 32.56254277 19.97436053 35.47187167 C19.97988159 37.21097714 19.97988159 37.21097714 19.98551419 38.98521605 C19.98449153 40.25716168 19.98346886 41.52910731 19.9824152 42.83959675 C19.98486296 44.21147286 19.98774693 45.58334826 19.99102798 46.95522264 C19.99880983 50.74097885 20.00037037 54.5267164 20.0009554 58.31247963 C20.00268206 62.42499667 20.01016609 66.53750378 20.01693195 70.65001506 C20.02799983 77.86286769 20.03536497 85.07571682 20.04033089 92.28857613 C20.04773172 103.01389118 20.06081366 113.739194 20.07507664 124.46450186 C20.09890567 142.50480726 20.11810207 160.54511483 20.13467598 178.58542824 C20.15110592 196.45262767 20.16958401 214.31982304 20.19080925 232.18701744 C20.19212686 233.29713751 20.19344446 234.40725759 20.194802 235.55101766 C20.2015039 241.18854888 20.20824251 246.82608005 20.21499526 252.46361121 C20.26278309 292.41445757 20.30596099 332.36530772 20.34643555 372.31616211 C20.38577132 411.13257116 20.42719042 449.94897708 20.47143555 488.76538086 C20.47279808 489.96146201 20.47416061 491.15754317 20.47556442 492.38986921 C20.48924957 504.40119449 20.50297713 516.41251973 20.51673577 528.42384493 C20.54476378 552.89321466 20.57250866 577.36258471 20.6000824 601.83195496 C20.6013506 602.95706513 20.6026188 604.08217531 20.60392542 605.24137974 C20.68860917 680.39919597 20.76669252 755.55701936 20.84375 830.71484375 C21.34566954 830.21140532 21.84758909 829.7079669 22.36471832 829.18927276 C52.12319598 799.34125219 81.89213311 769.50369892 111.6746593 739.67967313 C115.25193243 736.09739727 118.82911821 732.51503419 122.40625 728.93261719 C123.11838383 728.21943412 123.83051765 727.50625105 124.56423129 726.77145638 C136.08965496 715.22863496 147.6079904 703.67876527 159.12371455 692.12626801 C170.94304839 680.26950727 182.7699845 668.42036969 194.60398877 656.578251 C201.90395894 649.27279671 209.197959 641.9614852 216.4843957 634.64253218 C221.48384738 629.62191107 226.49067506 624.60872418 231.50331633 619.60127191 C234.39365523 616.71349097 237.28067771 613.82259066 240.15897179 610.92280006 C242.79823149 608.26397427 245.44670159 605.61468717 248.10255684 602.97244133 C249.50759282 601.56987689 250.90281081 600.15749791 252.29756248 598.74470603 C262.08253209 589.05115542 272.11663569 583.01666174 286.17578125 582.62109375 C299.45228985 583.25105857 309.61325062 587.88633806 318.59375 597.58984375 C326.73734467 607.32876676 328.73727073 618.23909564 328.03466797 630.72851562 C326.63359846 645.30537179 316.14297524 654.7168841 306.2923584 664.50001526 C305.23080351 665.56172649 304.16969116 666.62388034 303.1089797 667.68643421 C300.21257232 670.58535799 297.31000867 673.47804656 294.40635562 676.36971033 C291.26837134 679.49695483 288.13622639 682.63003841 285.00337219 685.76242065 C279.57952913 691.18390658 274.15209956 696.60178021 268.72224426 702.01724434 C260.86355523 709.85520438 253.01091536 717.69920261 245.15980953 725.54475772 C232.40956661 738.28575363 219.65523128 751.02264425 206.89794922 763.7565918 C206.13515591 764.5179918 205.37236259 765.2793918 204.58645433 766.06386452 C203.82271173 766.82621159 203.05896912 767.58855867 202.27208281 768.37400717 C191.44353375 779.18278734 180.61595327 789.99253653 169.78955078 800.8034668 C169.0276898 801.56423692 168.26582883 802.32500705 167.48088115 803.10883082 C154.77193244 815.79974817 142.06501977 828.49270286 129.3591466 841.18669933 C121.52776754 849.0104959 113.69431866 856.83220975 105.85816252 864.65122174 C100.48920613 870.00859666 95.12195483 875.36767563 89.75603092 880.72808785 C86.66181061 883.81898224 83.56675262 886.90902593 80.46946144 889.99684334 C77.63113087 892.82650789 74.79514511 895.65850112 71.96095592 898.4923135 C70.93837967 899.51392848 69.91495482 900.53469498 68.89057082 901.55449731 C63.83336011 906.58996518 58.88103872 911.65343706 54.24651986 917.08336341 C52.28429594 919.36551234 50.19495452 921.50558432 48.0769043 923.64282227 C47.20877609 924.52055801 46.34064789 925.39829376 45.44621277 926.30262756 C44.52939224 927.22369797 43.61257172 928.14476837 42.66796875 929.09375 C42.19040445 929.57414167 41.71284016 930.05453335 41.22080421 930.54948235 C38.69618622 933.08897302 36.16879875 935.62566657 33.63891602 938.15991211 C31.05369835 940.75061554 28.47790179 943.35047724 25.90419292 945.95260715 C23.89733663 947.97824593 21.8836487 949.99699146 19.86814308 952.01402092 C18.4600052 953.42658153 17.05895052 954.84619213 15.65812683 956.26600647 C4.54807202 967.33806794 -6.10749698 975.01452406 -22.15625 975.21484375 C-40.59169014 975.00340194 -50.67439543 964.49792295 -63.0052948 952.13322449 C-64.30340523 950.83885387 -65.60194661 949.54491533 -66.90087968 948.25137025 C-70.45775251 944.70670124 -74.00838423 941.15583832 -77.55797851 937.60388267 C-81.39149862 933.76995375 -85.23073851 929.94175962 -89.06919861 926.11277771 C-96.58334681 918.61522476 -104.09194633 911.11213882 -111.59835907 903.606842 C-117.69939092 897.50676106 -123.80200096 891.40826348 -129.90572548 885.31087685 C-147.21369717 868.02051143 -164.51747614 850.7259657 -181.81589671 833.42604467 C-182.74797648 832.49388498 -183.68005625 831.5617253 -184.64038086 830.60131836 C-186.04020707 829.20136951 -186.04020707 829.20136951 -187.4683126 827.77313886 C-202.60078606 812.63966174 -217.74340673 797.51638256 -232.8904682 782.39750775 C-248.44614533 766.87054942 -263.994362 751.33615489 -279.53482229 735.79396611 C-288.25870148 727.06942281 -296.98563774 718.34798872 -305.72060204 709.63454247 C-313.15540292 702.21793983 -320.58325263 694.79446185 -328.00216313 687.36196252 C-331.78708618 683.57050386 -335.57515964 679.78234115 -339.37200928 676.00282288 C-342.84892112 672.54161923 -346.31643896 669.07128278 -349.77676455 665.59349934 C-351.02883599 664.33835317 -352.28428194 663.08656212 -353.5434493 661.83853474 C-359.76017296 655.67317523 -365.60192683 649.86927437 -369.15625 641.71484375 C-369.64055608 640.6563705 -369.64055608 640.6563705 -370.13464612 639.57651395 C-373.84613092 631.01459667 -373.46070112 619.4921544 -370.53125 610.77734375 C-365.5936969 599.26214125 -358.15075051 590.99284398 -346.71484375 585.71875 C-335.47088221 581.30699715 -324.12705153 582.23253541 -312.88671875 586.2890625 C-304.82675124 590.49777229 -298.58177908 597.00749006 -292.23474121 603.39584351 C-291.25480987 604.37490128 -290.27443856 605.35351885 -289.29366922 606.33173716 C-286.61647411 609.00448433 -283.94551481 611.68338642 -281.27557945 614.36338305 C-278.38907625 617.25855545 -275.49676193 620.14791247 -272.60516357 623.03799438 C-267.60155823 628.04055306 -262.60161616 633.04674885 -257.60417175 638.05546188 C-250.37877866 645.29713672 -243.147843 652.53325638 -235.91556007 659.76804955 C-224.18067413 671.5073084 -212.45025777 683.25102289 -200.72265625 694.99755859 C-189.33307821 706.40550589 -177.94139313 717.81134236 -166.546875 729.21435547 C-165.84404583 729.91771008 -165.14121666 730.6210647 -164.41708964 731.34573309 C-160.89104835 734.87438453 -157.36496568 738.40299461 -153.83886242 741.93158412 C-124.60490552 771.18626093 -95.3782036 800.44817738 -66.15625 829.71484375 C-66.1560058 829.02323989 -66.1557616 828.33163603 -66.15550999 827.61907448 C-66.12878328 752.32695045 -66.09711696 677.03482911 -66.03961182 601.74272156 C-66.03875431 600.618136 -66.0378968 599.49355045 -66.0370133 598.33488654 C-66.01834792 573.89494331 -65.99879543 549.45500086 -65.97832905 525.01505907 C-65.96829782 513.02981491 -65.95846263 501.04457058 -65.94873047 489.05932617 C-65.94775866 487.86664673 -65.94678686 486.67396728 -65.9457856 485.44514604 C-65.91437527 446.78306863 -65.89591149 408.1209982 -65.88415753 369.45891024 C-65.87201103 329.73045543 -65.84681124 290.00202978 -65.80517386 250.27359441 C-65.79929972 244.66295353 -65.79357489 239.0523125 -65.78794098 233.44167137 C-65.78682752 232.33741064 -65.78571406 231.2331499 -65.78456686 230.09542672 C-65.76702326 212.31586036 -65.76325056 194.53631643 -65.76462079 176.75674258 C-65.76570451 158.88470144 -65.7522966 141.01271779 -65.72408572 123.14069847 C-65.70776333 112.52103733 -65.70256279 101.90150621 -65.71327825 91.28183721 C-65.7193425 84.18645744 -65.71091506 77.09119002 -65.6907577 69.99583655 C-65.67968809 65.95387992 -65.67486868 61.91218758 -65.68773755 57.87023024 C-65.69933883 54.18731676 -65.69232405 50.50490914 -65.6709493 46.82204371 C-65.66437292 44.8852862 -65.67721923 42.94849179 -65.69103962 41.01177242 C-65.57430955 27.85753346 -62.26440238 16.23229473 -53.12109375 6.5625 C-38.84024521 -6.96274808 -17.20546384 -10.2547058 0 0 Z " fill="#030303" transform="translate(372.15625,5.28515625)"/>
<path d="M0 0 C0.66 0.33 1.32 0.66 2 1 C-2.29 5.29 -6.58 9.58 -11 14 C-11 10.30159372 -10.17133056 9.68584567 -7.75 7 C-7.14671875 6.319375 -6.5434375 5.63875 -5.921875 4.9375 C-4.06233388 3.06284066 -2.15205789 1.52358081 0 0 Z " fill="#5C5C5C" transform="translate(18,595)"/>
</svg>
