<?xml version="1.0" encoding="UTF-8"?>
<svg version="1.1" xmlns="http://www.w3.org/2000/svg" width="812" height="116">
<path d="M0 0 C2.71749733 2.71749733 2.8848912 5.07351755 3.6875 8.8125 C3.95949219 10.03582031 4.23148438 11.25914063 4.51171875 12.51953125 C4.97171848 15.79840933 4.84341239 17.8471094 4 21 C4 21.66 4 22.32 4 23 C3.34 23 2.68 23 2 23 C1.84724609 23.95326172 1.84724609 23.95326172 1.69140625 24.92578125 C0.93743831 28.27816979 -0.12061405 31.43861476 -1.22241211 34.68969727 C-3.7831398 42.30341568 -5.90268842 48.87580425 -5 57 C-4.67 57.66 -4.34 58.32 -4 59 C10.37147003 62.7819658 27.47037973 52.60608713 40.73291016 47.36645508 C47.5710621 44.67028015 54.41999444 42.10757462 61.42285156 39.86157227 C64.03605863 39.0233708 64.03605863 39.0233708 66.64746094 37.89038086 C69 37 69 37 72 37 C73.34873447 36.54317058 74.68202056 36.03917341 76 35.5 C78.66035706 34.41167211 80.05739645 34 83 34 C83.33 33.34 83.66 32.68 84 32 C85.72265625 31.5078125 85.72265625 31.5078125 88.0625 31.125 C92.48779253 30.32832286 96.78074512 29.28467596 101.125 28.125 C109.35691185 25.97103568 117.70097568 24.62277616 126.10205078 23.30712891 C127.0970459 23.15034668 128.09204102 22.99356445 129.1171875 22.83203125 C130.01034668 22.69514893 130.90350586 22.5582666 131.82373047 22.41723633 C134.03568434 22.09499167 134.03568434 22.09499167 136 21 C139.84873129 20.75557742 143.70688766 20.81478548 147.5625 20.8125 C148.62275391 20.80025391 149.68300781 20.78800781 150.77539062 20.77539062 C159.49724038 20.75924902 169.01056128 21.10592108 176 27 C179.82961981 31.55387433 181.89430941 35.97563659 182 42 C180.99405781 51.05347967 176.47174712 59.17444255 172 67 C171.34 67.33 170.68 67.66 170 68 C170 68.99 170 69.98 170 71 C172.56257122 70.52121172 175.12505859 70.04198207 177.6875 69.5625 C178.40873047 69.42779297 179.12996094 69.29308594 179.87304688 69.15429688 C180.57880859 69.02216797 181.28457031 68.89003906 182.01171875 68.75390625 C182.65584717 68.63345947 183.29997559 68.5130127 183.96362305 68.38891602 C184.97162964 68.19640259 184.97162964 68.19640259 186 68 C187.18746826 67.77630737 187.18746826 67.77630737 188.39892578 67.5480957 C191.17241292 66.96366933 193.87670953 66.24295697 196.60546875 65.4765625 C197.67216797 65.1775 198.73886719 64.8784375 199.83789062 64.5703125 C200.94326172 64.25835937 202.04863281 63.94640625 203.1875 63.625 C204.27353516 63.32078125 205.35957031 63.0165625 206.47851562 62.703125 C211.34296402 61.33582059 216.19541262 59.94806033 221.0234375 58.45703125 C226.76585459 56.72212016 232.58936296 55.38872878 238.4375 54.0625 C239.56462402 53.80452637 240.69174805 53.54655273 241.85302734 53.28076172 C251.54552637 51.0748637 261.26199703 48.99453073 271 47 C271 46.34 271 45.68 271 45 C271.66 45 272.32 45 273 45 C273 45.66 273 46.32 273 47 C275.97065509 46.65772428 275.97065509 46.65772428 279 46 C279.33 45.34 279.66 44.68 280 44 C281.32 44 282.64 44 284 44 C285.33938074 43.81248337 286.67450291 43.59232596 288.00390625 43.34375 C288.74447266 43.20839844 289.48503906 43.07304688 290.24804688 42.93359375 C291.01181641 42.79050781 291.77558594 42.64742187 292.5625 42.5 C300.6097973 41 300.6097973 41 304 41 C304.33 40.34 304.66 39.68 305 39 C305.33 39.33 305.66 39.66 306 40 C308.07847766 39.76706387 310.14795856 39.45353557 312.2109375 39.109375 C313.50974854 38.89579346 314.80855957 38.68221191 316.14672852 38.4621582 C317.55615881 38.22481054 318.96558251 37.9874237 320.375 37.75 C321.80190033 37.51395192 323.22890278 37.27852034 324.65600586 37.04370117 C327.48280814 36.57814223 330.30919655 36.1101958 333.13525391 35.64013672 C340.09035764 34.48812901 347.05289908 33.38531544 354.02001953 32.30859375 C355.97148909 32.00444362 357.92131352 31.68979802 359.87109375 31.375 C366.97911795 30.27321799 373.80741395 29.73578255 381 30 C381.33 29.34 381.66 28.68 382 28 C382.57468018 28.01667725 383.14936035 28.03335449 383.74145508 28.05053711 C390.82335395 28.16343796 397.66914735 27.45255707 404.6875 26.5625 C413.20827073 25.52344035 421.66620894 24.6287926 430.2421875 24.2109375 C432.88603353 24.09311006 432.88603353 24.09311006 434.92797852 23.48730469 C437.72128839 22.83036507 440.44300677 22.98702774 443.29736328 23.01855469 C448.68997603 22.98153223 454.06166558 22.52277019 459.4375 22.125 C460.60087891 22.04636719 461.76425781 21.96773437 462.96289062 21.88671875 C468.07584487 21.51267032 473.01906542 21.07790397 478.01953125 19.92578125 C484.09134483 18.60798237 490.06881697 18.91619981 496.25 19.0625 C510.41269524 19.24932399 524.37776789 18.29973493 538.48144531 17.06665039 C539.26992859 16.99785172 540.05841187 16.92905304 540.87078857 16.85816956 C542.3450867 16.72791594 543.81911481 16.59455083 545.29278564 16.4573822 C548.33351763 16.182592 551.3104544 16.00198201 554.36523438 16.02148438 C556.97988488 16.19335158 556.97988488 16.19335158 559 15 C560.87862875 15.08744368 562.75455181 15.24175542 564.625 15.4375 C565.62789062 15.53933594 566.63078125 15.64117188 567.6640625 15.74609375 C568.82035156 15.87177734 568.82035156 15.87177734 570 16 C570.33 15.34 570.66 14.68 571 14 C571.825 14.01160156 572.65 14.02320312 573.5 14.03515625 C580.68853869 14.09131671 587.75693568 13.86949613 594.9296875 13.35791016 C601.95690833 12.883607 608.95910343 12.90895392 616 13 C616.33 12.34 616.66 11.68 617 11 C622.24695799 10.92533337 627.49360043 10.87115579 632.7409668 10.83520508 C634.52259719 10.82020357 636.30419119 10.79979567 638.08569336 10.77368164 C640.66008535 10.73691491 643.2339853 10.72018715 645.80859375 10.70703125 C646.59334579 10.69154739 647.37809784 10.67606354 648.18663025 10.66011047 C654.33968329 10.65827621 660.82440344 11.45066558 665.76487732 15.41682434 C667 17 667 17 666.875 20 C665.95636203 23.14961591 665.48088007 24.00106313 663 26 C655.67686694 28.91918268 647.90755179 29.61186143 640.11328125 30.1328125 C639.01259811 30.21498016 637.91191498 30.29714783 636.77787781 30.38180542 C633.29007074 30.6396767 629.80140694 30.88251649 626.3125 31.125 C623.99276707 31.29459814 621.67310465 31.4651636 619.35351562 31.63671875 C603.02570808 32.83317736 603.02570808 32.83317736 594.86083984 33.30371094 C594.10860641 33.34736786 593.35637299 33.39102478 592.5813446 33.43600464 C590.64458871 33.54541602 588.70743866 33.64778996 586.77026367 33.74951172 C584.04348747 33.82623514 584.04348747 33.82623514 582 35 C580.02083952 35.02141286 578.04108975 34.98962779 576.0625 34.9375 C567.30355518 34.80406425 558.61881701 35.55132778 549.89672852 36.28881836 C542.57762918 36.88748384 535.34298688 37.11968196 528 37 C527.67 37.66 527.34 38.32 527 39 C523.37 38.67 519.74 38.34 516 38 C515.67 38.66 515.34 39.32 515 40 C513.42774658 39.96628296 513.42774658 39.96628296 511.82373047 39.93188477 C497.19172998 39.72341137 482.7050614 40.80749658 468.125 41.9375 C465.67192353 42.12238976 463.21879862 42.30663803 460.765625 42.49023438 C455.22470593 42.90644806 449.6843176 43.32902782 444.14431763 43.7572937 C441.93742247 43.92764143 439.73044471 44.09692087 437.52340698 44.26541138 C436.38259674 44.35257416 435.2417865 44.43973694 434.06640625 44.52954102 C433.03990967 44.60777603 432.01341309 44.68601105 430.95581055 44.76661682 C426.25848318 45.13750568 421.56679958 45.56544838 416.875 46 C414.15234375 46.25 414.15234375 46.25 411.4296875 46.5 C410.54893555 46.58121094 409.66818359 46.66242187 408.76074219 46.74609375 C404.17417941 47.16792124 399.58708519 47.5838977 395 48 C395 48.66 395 49.32 395 50 C394.01 49.67 393.02 49.34 392 49 C390.65914591 49.30166073 389.32654314 49.64059469 388 50 C386.05328948 50.1772589 384.10337612 50.3206782 382.15234375 50.44140625 C374.90446788 50.96062987 367.75330361 51.90805552 360.5625 52.9375 C359.35529297 53.10701172 358.14808594 53.27652344 356.90429688 53.45117188 C354.48028025 53.79227213 352.05660952 54.13584001 349.63330078 54.48193359 C347.17390705 54.83261452 344.71392299 55.17917585 342.25341797 55.52197266 C336.13399515 56.3791649 330.06101116 57.29824779 324 58.5 C317.55425541 59.76529052 311.12333999 60.70016832 304.59765625 61.47265625 C303.31181641 61.73369141 303.31181641 61.73369141 302 62 C301.67 62.66 301.34 63.32 301 64 C300.01 64 299.02 64 298 64 C289.37814319 64.70927668 280.96577989 66.47431361 272.5 68.1875 C271.72843567 68.34273132 270.95687134 68.49796265 270.16192627 68.65789795 C252.69954935 72.17888407 235.30986362 75.96015534 218.26318359 81.16967773 C206.95643494 84.58712939 195.36226379 87.09568488 183.8125 89.54614258 C181.91701721 89.95125839 181.91701721 89.95125839 180 91 C177.23430006 90.93581709 174.50771909 90.81039288 171.75 90.625 C170.99847656 90.58117187 170.24695313 90.53734375 169.47265625 90.4921875 C158.0146452 89.77231246 158.0146452 89.77231246 154.98828125 87.46875 C151.05744268 82.85070189 147.2658236 78.27146796 147 72 C148.15765233 67.725157 149.97921546 63.92900548 152 60 C152.37253906 59.23042969 152.74507813 58.46085937 153.12890625 57.66796875 C154.58518567 54.68116821 156.13274429 51.74926079 157.6875 48.8125 C158.9250107 46.16069136 159.57608471 43.88262396 160 41 C158.35 41 156.7 41 155 41 C154.67 41.66 154.34 42.32 154 43 C153.34 43 152.68 43 152 43 C151.67 41.68 151.34 40.36 151 39 C150.05382812 39.18175781 149.10765625 39.36351562 148.1328125 39.55078125 C142.21480192 40.67802136 136.299656 41.80295526 130.3515625 42.76171875 C129.19889893 42.9477063 129.19889893 42.9477063 128.02294922 43.13745117 C126.56436948 43.37010326 125.10510217 43.59850736 123.64501953 43.8215332 C113.16313218 45.49370769 102.98028166 48.50909184 92.8125 51.5 C91.28979492 51.94279297 91.28979492 51.94279297 89.73632812 52.39453125 C83.77789371 54.13865067 77.87700242 56.00021454 72 58 C70.52758306 58.48900242 69.05492307 58.97727357 67.58203125 59.46484375 C62.60355144 61.12505433 57.64441233 62.83911806 52.6875 64.5625 C51.71417725 64.89894531 50.74085449 65.23539062 49.73803711 65.58203125 C44.62453577 67.35742412 39.52553177 69.16375676 34.4495697 71.04417419 C32.56054623 71.74392351 30.66977733 72.43876068 28.77856445 73.13256836 C26.34606867 74.02767439 23.91732283 74.93305414 21.49291992 75.84985352 C15.39755652 78.08296465 10.50259503 79.57446238 4 79 C3.67 79.66 3.34 80.32 3 81 C-14.88475709 77.55194773 -14.88475709 77.55194773 -21 73 C-22.14453125 71.03125 -22.14453125 71.03125 -23 69 C-23.37125 68.154375 -23.7425 67.30875 -24.125 66.4375 C-25 64 -25 64 -25 61 C-25.66 60.67 -26.32 60.34 -27 60 C-26.505 58.515 -26.505 58.515 -26 57 C-26.66 57 -27.32 57 -28 57 C-28 56.34 -28 55.68 -28 55 C-27.34 55 -26.68 55 -26 55 C-26.020625 53.865625 -26.04125 52.73125 -26.0625 51.5625 C-26.0625 45.30042033 -25.37990676 39.11101566 -24 33 C-23.34 33 -22.68 33 -22 33 C-22.33 32.01 -22.66 31.02 -23 30 C-22.0390625 27.44140625 -22.0390625 27.44140625 -20.625 24.5625 C-19.07692628 21.38419222 -17.70618108 18.47342554 -17 15 C-18.65 15 -20.3 15 -22 15 C-22.33 15.66 -22.66 16.32 -23 17 C-23 16.34 -23 15.68 -23 15 C-26.54454505 15.92683422 -30.08502913 16.86835897 -33.625 17.8125 C-35.12353516 18.20405273 -35.12353516 18.20405273 -36.65234375 18.60351562 C-41.74743485 19.97007979 -46.37457525 21.38790738 -51 24 C-55 26 -55 26 -57.296875 26.41796875 C-60.22124466 27.04763794 -62.54588509 28.03219979 -65.25 29.3125 C-66.37792969 29.84617188 -67.50585938 30.37984375 -68.66796875 30.9296875 C-69.32974121 31.24647461 -69.99151367 31.56326172 -70.67333984 31.88964844 C-73.44021474 33.21008359 -76.2145018 34.51444531 -78.98828125 35.8203125 C-94.82195142 43.29744511 -94.82195142 43.29744511 -110 52 C-114.15118134 54.54811131 -118.39662013 56.88599024 -122.6875 59.1875 C-123.36361328 59.55552734 -124.03972656 59.92355469 -124.73632812 60.30273438 C-129.76555253 63 -129.76555253 63 -132 63 C-132 63.66 -132 64.32 -132 65 C-134.97364467 64.00878511 -135.97315813 63.32312196 -138.125 61.1875 C-138.64320313 60.68605469 -139.16140625 60.18460937 -139.6953125 59.66796875 C-141.16182148 57.79312044 -141.58673911 56.32333259 -142 54 C-140.02 53.505 -140.02 53.505 -138 53 C-138 52.34 -138 51.68 -138 51 C-137.0409375 50.8453125 -137.0409375 50.8453125 -136.0625 50.6875 C-135.0415625 50.3471875 -135.0415625 50.3471875 -134 50 C-133.67 49.01 -133.34 48.02 -133 47 C-131.515 46.505 -131.515 46.505 -130 46 C-129.34 45.34 -128.68 44.68 -128 44 C-126.24471642 42.97746452 -124.45595818 42.03945269 -122.65625 41.09765625 C-120.68278769 39.94357293 -120.68278769 39.94357293 -119 37 C-118.29488281 36.86078125 -117.58976562 36.7215625 -116.86328125 36.578125 C-112.83358252 35.7644887 -109.71730316 33.80213392 -106.1875 31.75 C-105.51396484 31.36714844 -104.84042969 30.98429687 -104.14648438 30.58984375 C-100.77111924 28.65829509 -97.46342446 26.66058198 -94.19921875 24.546875 C-89.22689746 21.41568111 -83.94166211 18.98435651 -78.625 16.5 C-76.65843946 15.57379668 -74.6922901 14.64671981 -72.7265625 13.71875 C-71.77426758 13.27144531 -70.82197266 12.82414062 -69.84082031 12.36328125 C-66.20991114 10.62084426 -62.63647158 8.77416818 -59.07177734 6.90039062 C-57 6 -57 6 -54 6 C-53.67 5.34 -53.34 4.68 -53 4 C-51.08930501 3.26000315 -49.14485315 2.60590375 -47.1875 2 C-42.99196062 0.71762774 -42.99196062 0.71762774 -38.98046875 -1.0234375 C-26.94058907 -6.9602618 -11.20956133 -7.64288273 0 0 Z " fill="#74B193" transform="translate(144,12)"/>
<path d="M0 0 C0.99 0.33 1.98 0.66 3 1 C-1.62 3.97 -6.24 6.94 -11 10 C-9.02 10 -7.04 10 -5 10 C-4.67 10.66 -4.34 11.32 -4 12 C-4.99 12.495 -4.99 12.495 -6 13 C-5.13618706 15.31285945 -5.13618706 15.31285945 -2.25 15.9375 C-1.1775 15.958125 -0.105 15.97875 1 16 C2.68816933 14.35511706 4.35353315 12.68662458 6 11 C9.8125 10.1875 9.8125 10.1875 13 10 C7.05389888 16.25149 -1.0810195 19.62382648 -8.73046875 23.3515625 C-11.96765486 24.9281264 -11.96765486 24.9281264 -14.80078125 26.7109375 C-17 28 -17 28 -19 28 C-19 28.66 -19 29.32 -19 30 C-21.97364467 29.00878511 -22.97315813 28.32312196 -25.125 26.1875 C-25.64320312 25.68605469 -26.16140625 25.18460938 -26.6953125 24.66796875 C-28.16182148 22.79312044 -28.58673911 21.32333259 -29 19 C-27.68 18.67 -26.36 18.34 -25 18 C-25 17.34 -25 16.68 -25 16 C-24.360625 15.896875 -23.72125 15.79375 -23.0625 15.6875 C-22.0415625 15.3471875 -22.0415625 15.3471875 -21 15 C-20.67 14.01 -20.34 13.02 -20 12 C-19.01 11.67 -18.02 11.34 -17 11 C-16.34 10.34 -15.68 9.68 -15 9 C-13.24471642 7.97746452 -11.45595818 7.03945269 -9.65625 6.09765625 C-7.68278769 4.94357293 -7.68278769 4.94357293 -6 2 C-3.4375 1.375 -3.4375 1.375 -1 1 C-0.67 0.67 -0.34 0.34 0 0 Z " fill="#74B192" transform="translate(31,47)"/>
<path d="M0 0 C8.58 0 17.16 0 26 0 C26 0.33 26 0.66 26 1 C21.06679159 2.19546288 16.09465464 2.40662927 11.046875 2.71875 C10.07325012 2.78155151 9.09962524 2.84435303 8.09649658 2.90905762 C4.98118971 3.10918653 1.86560737 3.30461118 -1.25 3.5 C-3.2994983 3.63121195 -5.34897769 3.76271952 -7.3984375 3.89453125 C-15.23673013 4.39608472 -23.07525268 4.88928328 -30.91631222 5.34589481 C-40.00810826 5.87544768 -49.09684978 6.44576895 -58.18517113 7.03170967 C-63.4442558 7.36998043 -68.70364949 7.70342516 -73.96297741 8.03788853 C-78.54146019 8.32932258 -83.11983008 8.62235991 -87.69799805 8.91870117 C-92.18479443 9.2090305 -96.67185305 9.49495663 -101.15911293 9.77802849 C-102.84741481 9.88529913 -104.53562015 9.99410226 -106.22371483 10.10458565 C-116.16996325 10.75459521 -126.02751169 11.15334938 -136 11 C-132.58079121 8.72052748 -130.73239789 8.89453968 -126.73779297 8.98339844 C-121.33331786 9.01617036 -115.94922936 8.52357633 -110.5625 8.125 C-109.39912109 8.04636719 -108.23574219 7.96773437 -107.03710938 7.88671875 C-101.92415513 7.51267032 -96.98093458 7.07790397 -91.98046875 5.92578125 C-85.90865517 4.60798237 -79.93118303 4.91619981 -73.75 5.0625 C-59.58730476 5.24932399 -45.62223211 4.29973493 -31.51855469 3.06665039 C-30.33582977 2.96345238 -30.33582977 2.96345238 -29.12921143 2.85816956 C-27.6549133 2.72791594 -26.18088519 2.59455083 -24.70721436 2.4573822 C-21.66648237 2.182592 -18.6895456 2.00198201 -15.63476562 2.02148438 C-13.02011512 2.19335158 -13.02011512 2.19335158 -11 1 C-9.12137125 1.08744368 -7.24544819 1.24175542 -5.375 1.4375 C-4.37210938 1.53933594 -3.36921875 1.64117188 -2.3359375 1.74609375 C-1.56507813 1.82988281 -0.79421875 1.91367187 0 2 C0 1.34 0 0.68 0 0 Z " fill="#B5CCB0" transform="translate(714,26)"/>
<path d="M0 0 C-0.185625 0.598125 -0.37125 1.19625 -0.5625 1.8125 C-1.22093687 4.16408762 -1.22093687 4.16408762 0 7 C1.65 7 3.3 7 5 7 C4.01 7.495 4.01 7.495 3 8 C3.33 8.99 3.66 9.98 4 11 C1 13 1 13 -1.875 13.875 C-5.10433263 14.8230144 -5.10433263 14.8230144 -7.5 17.1875 C-10 19 -10 19 -13.3125 18.75 C-14.199375 18.5025 -15.08625 18.255 -16 18 C-16.33 17.01 -16.66 16.02 -17 15 C-16.34 14.34 -15.68 13.68 -15 13 C-17.31 13 -19.62 13 -22 13 C-18.32628876 8.84710903 -13.77633541 5.76621742 -9 3 C-8.34 3 -7.68 3 -7 3 C-6.67 2.01 -6.34 1.02 -6 0 C-3.42525708 -0.99667468 -2.51072708 -1.25536354 0 0 Z M-4 5 C-3 7 -3 7 -3 7 Z " fill="#6EB090" transform="translate(41,45)"/>
<path d="M0 0 C5.38937415 -0.07464507 10.77844152 -0.12883434 16.16821289 -0.16479492 C17.99834441 -0.17979997 19.82844046 -0.20021059 21.65844727 -0.22631836 C24.30233558 -0.26306906 26.94574492 -0.27980937 29.58984375 -0.29296875 C30.79978249 -0.31619453 30.79978249 -0.31619453 32.03416443 -0.33988953 C38.24887672 -0.34169462 44.76566871 0.41514224 49.76792908 4.41291809 C51 6 51 6 50.8125 9.0625 C50 12 50 12 48 14 C48.33 11.69 48.66 9.38 49 7 C48.34 6.67 47.68 6.34 47 6 C47 5.34 47 4.68 47 4 C40.429174 2.80039879 33.94955626 2.87286734 27.28515625 2.90234375 C25.46883949 2.90446617 25.46883949 2.90446617 23.61582947 2.90663147 C19.76469406 2.91220974 15.91361771 2.9247583 12.0625 2.9375 C9.4446623 2.94251781 6.82682369 2.94708022 4.20898438 2.95117188 C-2.19403042 2.96217206 -8.59701099 2.97888856 -15 3 C-15 2.67 -15 2.34 -15 2 C-10.05 2 -5.1 2 0 2 C0 1.34 0 0.68 0 0 Z " fill="#B6C8AF" transform="translate(760,23)"/>
<path d="M0 0 C1.6640625 1.52734375 1.6640625 1.52734375 3 3 C-1.26778588 4.03387236 -5.53963198 5.04985498 -9.8125 6.0625 C-11.63491211 6.50432617 -11.63491211 6.50432617 -13.49414062 6.95507812 C-14.65751953 7.22900391 -15.82089844 7.50292969 -17.01953125 7.78515625 C-18.09307861 8.04176025 -19.16662598 8.29836426 -20.27270508 8.56274414 C-23 9 -23 9 -26 8 C-26 7.01 -26 6.02 -26 5 C-25.31035156 4.97421875 -24.62070312 4.9484375 -23.91015625 4.921875 C-17.88030304 4.55793324 -13.41082213 3.5174468 -8.00390625 0.8671875 C-5.18863227 -0.3511182 -3.01087158 -0.50181193 0 0 Z " fill="#8CBB9C" transform="translate(404,79)"/>
<path d="M0 0 C1.5631897 0.00785522 1.5631897 0.00785522 3.15795898 0.01586914 C4.28266602 0.0190918 5.40737305 0.02231445 6.56616211 0.02563477 C7.75016602 0.03401367 8.93416992 0.04239258 10.15405273 0.05102539 C11.34192383 0.05553711 12.52979492 0.06004883 13.75366211 0.06469727 C16.69967499 0.07652864 19.64558954 0.09301252 22.59155273 0.11352539 C22.59155273 0.44352539 22.59155273 0.77352539 22.59155273 1.11352539 C21.90005127 1.1636377 21.2085498 1.21375 20.49609375 1.26538086 C17.38125987 1.49661421 14.2677413 1.74236948 11.15405273 1.98852539 C10.06543945 2.0671582 8.97682617 2.14579102 7.85522461 2.22680664 C6.30351562 2.35249023 6.30351562 2.35249023 4.72045898 2.48071289 C3.76212158 2.55402832 2.80378418 2.62734375 1.81640625 2.70288086 C0.71510376 2.9061499 0.71510376 2.9061499 -0.40844727 3.11352539 C-0.73844727 3.77352539 -1.06844727 4.43352539 -1.40844727 5.11352539 C-0.74844727 5.11352539 -0.08844727 5.11352539 0.59155273 5.11352539 C0.26155273 6.10352539 -0.06844727 7.09352539 -0.40844727 8.11352539 C-1.72844727 7.78352539 -3.04844727 7.45352539 -4.40844727 7.11352539 C-4.40844727 6.12352539 -4.40844727 5.13352539 -4.40844727 4.11352539 C-12.32844727 4.60852539 -12.32844727 4.60852539 -20.40844727 5.11352539 C-16.87224292 2.75605583 -14.47716165 2.56339912 -10.28344727 2.05102539 C-6.61974074 1.59774473 -3.36312404 0.15852536 0 0 Z " fill="#9AC4A1" transform="translate(281.408447265625,32.886474609375)"/>
<path d="M0 0 C0.99 0.33 1.98 0.66 3 1 C2.12859375 1.556875 1.2571875 2.11375 0.359375 2.6875 C-0.84387857 3.45813262 -2.04699329 4.22898206 -3.25 5 C-3.8780957 5.40210693 -4.50619141 5.80421387 -5.15332031 6.21850586 C-10.38751243 9.58042719 -15.54144127 13.04780664 -20.671875 16.56640625 C-23 18 -23 18 -25 18 C-25 17.34 -25 16.68 -25 16 C-24.360625 15.896875 -23.72125 15.79375 -23.0625 15.6875 C-22.0415625 15.3471875 -22.0415625 15.3471875 -21 15 C-20.67 14.01 -20.34 13.02 -20 12 C-19.01 11.67 -18.02 11.34 -17 11 C-16.34 10.34 -15.68 9.68 -15 9 C-13.24471642 7.97746452 -11.45595818 7.03945269 -9.65625 6.09765625 C-7.68278769 4.94357293 -7.68278769 4.94357293 -6 2 C-3.4375 1.375 -3.4375 1.375 -1 1 C-0.67 0.67 -0.34 0.34 0 0 Z " fill="#B5C5AF" transform="translate(31,47)"/>
<path d="M0 0 C0.33 0.66 0.66 1.32 1 2 C2.98 2 4.96 2 7 2 C6.01 2.33 5.02 2.66 4 3 C3.67 3.66 3.34 4.32 3 5 C2.01 5 1.02 5 0 5 C-1.37659481 5.12991959 -2.75157487 5.2775132 -4.125 5.4375 C-5.30255859 5.57285156 -5.30255859 5.57285156 -6.50390625 5.7109375 C-7.73947266 5.85402344 -7.73947266 5.85402344 -9 6 C-10.68740668 6.188338 -12.37490269 6.37587786 -14.0625 6.5625 C-15.361875 6.706875 -16.66125 6.85125 -18 7 C-18 6.34 -18 5.68 -18 5 C-15.36 5 -12.72 5 -10 5 C-10 4.34 -10 3.68 -10 3 C-5.05 1.515 -5.05 1.515 0 0 Z " fill="#9DC2A0" transform="translate(442,71)"/>
<path d="M0 0 C1.65 0.33 3.3 0.66 5 1 C4.67 1.66 4.34 2.32 4 3 C4.99 3 5.98 3 7 3 C8.66666667 3 10.33333333 3 12 3 C8.88446461 5.07702359 6.60989929 5.74906855 3 6.625 C1.4221875 7.01558594 1.4221875 7.01558594 -0.1875 7.4140625 C-3 8 -3 8 -6 8 C-6 7.34 -6 6.68 -6 6 C-4.35 5.67 -2.7 5.34 -1 5 C-0.67 3.35 -0.34 1.7 0 0 Z " fill="#8DBC9E" transform="translate(105,24)"/>
<path d="M0 0 C0.33 0.66 0.66 1.32 1 2 C-1.81345635 2.93781878 -3.37975569 3.09680457 -6.2734375 3.02734375 C-7.5109375 3.00897461 -7.5109375 3.00897461 -8.7734375 2.99023438 C-10.50008714 2.95523472 -12.22666011 2.9162085 -13.953125 2.87304688 C-18.4354051 2.81370205 -21.92529872 2.86203945 -26 5 C-25.44140625 3.046875 -25.44140625 3.046875 -24 1 C-20.83984375 0.390625 -20.83984375 0.390625 -16.9375 0.25 C-15.92901001 0.20661499 -15.92901001 0.20661499 -14.90014648 0.16235352 C-9.93327038 -0.0338879 -4.96932663 -0.08718117 0 0 Z " fill="#67AA86" transform="translate(305,34)"/>
<path d="M0 0 C1.32 0.66 2.64 1.32 4 2 C1.44113496 3.32002556 -1.12167068 4.63113782 -3.6875 5.9375 C-4.7693457 6.49727539 -4.7693457 6.49727539 -5.87304688 7.06835938 C-9.56505742 8.93965239 -12.83693096 10.48269556 -17 11 C-13.25 8 -13.25 8 -11 8 C-11 7.01 -11 6.02 -11 5 C-8.6875 3.25 -8.6875 3.25 -6 2 C-5.01 2.33 -4.02 2.66 -3 3 C-2.01 2.01 -1.02 1.02 0 0 Z " fill="#9ABFA5" transform="translate(71,41)"/>
<path d="M0 0 C3.63 0.33 7.26 0.66 11 1 C3.98510896 4.50744552 -3.30675534 4.14188361 -11 4 C-10.01 3.34 -9.02 2.68 -8 2 C-7.34 2.33 -6.68 2.66 -6 3 C-5.67 2.34 -5.34 1.68 -5 1 C-3.35 1 -1.7 1 0 1 C0 0.67 0 0.34 0 0 Z " fill="#69AA85" transform="translate(544,55)"/>
<path d="M0 0 C0.9796875 0.0515625 1.959375 0.103125 2.96875 0.15625 C4.49242187 0.25292969 4.49242187 0.25292969 6.046875 0.3515625 C7.59375 0.43664063 7.59375 0.43664063 9.171875 0.5234375 C11.71426705 0.6646815 14.25563738 0.81606996 16.796875 0.9765625 C16.796875 1.3065625 16.796875 1.6365625 16.796875 1.9765625 C15.99765625 2.03714844 15.1984375 2.09773438 14.375 2.16015625 C6.84620761 2.73453595 -0.67938872 3.33941727 -8.203125 3.9765625 C-8.533125 3.3165625 -8.863125 2.6565625 -9.203125 1.9765625 C-5.96373384 0.0395388 -3.7428729 -0.21760889 0 0 Z " fill="#A4C7A2" transform="translate(568.203125,54.0234375)"/>
<path d="M0 0 C1.5631897 0.00785522 1.5631897 0.00785522 3.15795898 0.01586914 C4.28266602 0.0190918 5.40737305 0.02231445 6.56616211 0.02563477 C7.75016602 0.03401367 8.93416992 0.04239258 10.15405273 0.05102539 C11.34192383 0.05553711 12.52979492 0.06004883 13.75366211 0.06469727 C16.69967499 0.07652864 19.64558954 0.09301252 22.59155273 0.11352539 C22.59155273 0.44352539 22.59155273 0.77352539 22.59155273 1.11352539 C21.90528809 1.16887451 21.21902344 1.22422363 20.51196289 1.28125 C17.41312838 1.53357842 14.31485289 1.79222188 11.21655273 2.05102539 C9.59620117 2.18154297 9.59620117 2.18154297 7.94311523 2.31469727 C6.91186523 2.40170898 5.88061523 2.4887207 4.81811523 2.57836914 C3.86501465 2.65692139 2.91191406 2.73547363 1.92993164 2.81640625 C-0.42676522 2.98480713 -0.42676522 2.98480713 -2.40844727 4.11352539 C-2.73844727 3.12352539 -3.06844727 2.13352539 -3.40844727 1.11352539 C-2.40844727 0.11352539 -2.40844727 0.11352539 0 0 Z " fill="#ADC5AD" transform="translate(281.408447265625,32.886474609375)"/>
<path d="M0 0 C1.65 0.33 3.3 0.66 5 1 C5 1.33 5 1.66 5 2 C9.62 2 14.24 2 19 2 C19 2.33 19 2.66 19 3 C5.3667426 5.29612756 5.3667426 5.29612756 -1 5 C-0.67 3.35 -0.34 1.7 0 0 Z " fill="#9FC0A6" transform="translate(273,49)"/>
<path d="M0 0 C2.60791388 3.91187082 3.30431344 7.08717266 2.5625 11.75 C2.376875 12.4925 2.19125 13.235 2 14 C2 14.66 2 15.32 2 16 C1.34 16 0.68 16 0 16 C0 16.99 0 17.98 0 19 C-0.66 19 -1.32 19 -2 19 C-2 17.68 -2 16.36 -2 15 C-1.34 15 -0.68 15 0 15 C0 10.05 0 5.1 0 0 Z " fill="#A6CAA7" transform="translate(146,19)"/>
<path d="M0 0 C1.83884766 -0.03867188 1.83884766 -0.03867188 3.71484375 -0.078125 C7.0625 0.25 7.0625 0.25 11.0625 3.25 C3.4725 3.25 -4.1175 3.25 -11.9375 3.25 C-8.40037619 -0.28712381 -4.783641 0.06023472 0 0 Z " fill="#B6CCB0" transform="translate(126.9375,6.75)"/>
<path d="M0 0 C0.8835094 2.47382632 1.21437322 3.54321317 0.07421875 5.97265625 C-0.28027344 6.64167969 -0.63476562 7.31070313 -1 8 C-1.49571039 12.69664595 -1.18055961 17.42533152 0 22 C-2.54150819 20.72924591 -2.84828937 19.78197168 -3.9375 17.1875 C-5.81698505 11.47533954 -3.67974891 7.52356662 -1.19921875 2.30859375 C-0.80347656 1.54675781 -0.40773438 0.78492187 0 0 Z " fill="#AFC2AD" transform="translate(296,72)"/>
<path d="M0 0 C-3.13269705 3.13269705 -5.97328423 3.05494397 -10.25 3.0625 C-12.10625 3.0315625 -12.10625 3.0315625 -14 3 C-13 1 -13 1 -10.375 -0.1875 C-6.55495663 -1.10714007 -3.82452397 -0.76490479 0 0 Z " fill="#8DB898" transform="translate(362,92)"/>
<path d="M0 0 C6.25465839 1.53416149 6.25465839 1.53416149 9 3.25 C10 5 10 5 9.8125 8.0625 C9 11 9 11 7 13 C7.33 10.69 7.66 8.38 8 6 C7.34 5.67 6.68 5.34 6 5 C6 4.34 6 3.68 6 3 C3.69 2.67 1.38 2.34 -1 2 C-0.67 1.34 -0.34 0.68 0 0 Z " fill="#A8C2A2" transform="translate(801,24)"/>
<path d="M0 0 C-0.68707031 0.40992188 -1.37414063 0.81984375 -2.08203125 1.2421875 C-3.43361328 2.05042969 -3.43361328 2.05042969 -4.8125 2.875 C-6.15248047 3.67550781 -6.15248047 3.67550781 -7.51953125 4.4921875 C-9.37294724 5.61883092 -11.19529917 6.79686611 -13 8 C-13.33 7.34 -13.66 6.68 -14 6 C-4.98701299 -2.49350649 -4.98701299 -2.49350649 0 0 Z " fill="#9BC2A6" transform="translate(44,58)"/>
<path d="M0 0 C6.10642479 -0.78287497 10.00459579 1.89174849 15 5 C14.67 5.66 14.34 6.32 14 7 C11.69 6.01 9.38 5.02 7 4 C7 3.34 7 2.68 7 2 C4.69 1.67 2.38 1.34 0 1 C0 0.67 0 0.34 0 0 Z " fill="#A2C1A2" transform="translate(305,34)"/>
<path d="M0 0 C0.66 0 1.32 0 2 0 C2 0.66 2 1.32 2 2 C2.99 1.67 3.98 1.34 5 1 C5.66 1.99 6.32 2.98 7 4 C6.34 4.66 5.68 5.32 5 6 C2.875 5.625 2.875 5.625 1 5 C0.67 3.35 0.34 1.7 0 0 Z " fill="#7BB597" transform="translate(482,60)"/>
<path d="M0 0 C0.99 0.33 1.98 0.66 3 1 C3 1.33 3 1.66 3 2 C3.165 2.61875 3.33 3.2375 3.5 3.875 C4 6 4 6 4 9 C1.24338912 6.51015791 -0.60746455 4.79450934 -1 1 C-0.67 0.67 -0.34 0.34 0 0 Z " fill="#ABC2A6" transform="translate(3,65)"/>
<path d="M0 0 C-0.99 0.33 -1.98 0.66 -3 1 C-2.67 1.66 -2.34 2.32 -2 3 C-4.64 3 -7.28 3 -10 3 C-9.34 2.67 -8.68 2.34 -8 2 C-8 1.34 -8 0.68 -8 0 C-4.94736336 -0.98120464 -3.05263664 -0.98120464 0 0 Z " fill="#8ABA9B" transform="translate(360,74)"/>
<path d="M0 0 C0.66 0.33 1.32 0.66 2 1 C-4.28571429 6.42857143 -4.28571429 6.42857143 -8 8 C-6.49776416 3.79373966 -3.71449966 2.26099979 0 0 Z " fill="#65A985" transform="translate(12,61)"/>
<path d="M0 0 C0.66 0.66 1.32 1.32 2 2 C1.67 2.99 1.34 3.98 1 5 C-1.3125 5.625 -1.3125 5.625 -4 6 C-4.99 5.34 -5.98 4.68 -7 4 C-4.35261084 2.5393715 -3.10551666 2 0 2 C0 1.34 0 0.68 0 0 Z " fill="#9BBFA4" transform="translate(90,16)"/>
<path d="M0 0 C-2.76223278 2.76223278 -5.20706617 2.57856291 -9 3 C-9 2.01 -9 1.02 -9 0 C-5.93109813 -1.53445094 -3.29905734 -0.54984289 0 0 Z " fill="#8BBD9C" transform="translate(198,75)"/>
<path d="M0 0 C0.66 0 1.32 0 2 0 C2 0.66 2 1.32 2 2 C2.66 2.33 3.32 2.66 4 3 C3.34 3 2.68 3 2 3 C1.67 3.99 1.34 4.98 1 6 C0.34 6 -0.32 6 -1 6 C-1 5.34 -1 4.68 -1 4 C-2.32 3.67 -3.64 3.34 -5 3 C-3.35 2.67 -1.7 2.34 0 2 C0 1.34 0 0.68 0 0 Z " fill="#A8C6AB" transform="translate(415,57)"/>
<path d="M0 0 C2.64 0 5.28 0 8 0 C5.37801226 2.15377564 3.35595828 3.40072174 0 4 C0 2.68 0 1.36 0 0 Z " fill="#8EBB9F" transform="translate(44,53)"/>
<path d="M0 0 C0.66 0.66 1.32 1.32 2 2 C1.34 2 0.68 2 0 2 C0 2.66 0 3.32 0 4 C0.99 4.33 1.98 4.66 3 5 C2.34 5 1.68 5 1 5 C1 5.66 1 6.32 1 7 C0.01 6.67 -0.98 6.34 -2 6 C-2 3 -2 3 0 0 Z " fill="#93B596" transform="translate(11,70)"/>
<path d="M0 0 C-0.33 0.66 -0.66 1.32 -1 2 C-4.63 2 -8.26 2 -12 2 C-7.89783794 -0.73477471 -4.73617773 -1.57872591 0 0 Z " fill="#A3C5AA" transform="translate(391,66)"/>
<path d="M0 0 C2.64 0 5.28 0 8 0 C8.33 0.66 8.66 1.32 9 2 C7.35 2 5.7 2 4 2 C3.67 2.66 3.34 3.32 3 4 C2.34 4 1.68 4 1 4 C0.67 2.68 0.34 1.36 0 0 Z " fill="#C8D2C4" transform="translate(295,51)"/>
<path d="M0 0 C0.66 0.33 1.32 0.66 2 1 C2 1.99 2 2.98 2 4 C0.35 4.66 -1.3 5.32 -3 6 C-3.33 5.01 -3.66 4.02 -4 3 C-2.68 2.01 -1.36 1.02 0 0 Z " fill="#62A986" transform="translate(39,44)"/>
<path d="M0 0 C0.33 0.66 0.66 1.32 1 2 C2.65 2 4.3 2 6 2 C2.5647952 4.29013653 1.014669 4.17842973 -3 4 C-3 3.34 -3 2.68 -3 2 C-2.01 2 -1.02 2 0 2 C0 1.34 0 0.68 0 0 Z " fill="#67AA87" transform="translate(474,64)"/>
<path d="M0 0 C2.31 0.33 4.62 0.66 7 1 C7 1.66 7 2.32 7 3 C4.69 3 2.38 3 0 3 C0 2.01 0 1.02 0 0 Z " fill="#C3D4C1" transform="translate(624,31)"/>
<path d="M0 0 C-1.65 1.32 -3.3 2.64 -5 4 C-5.66 3.67 -6.32 3.34 -7 3 C-7 2.01 -7 1.02 -7 0 C-4.3333581 -1.33332095 -2.83319697 -0.67102033 0 0 Z " fill="#A2C6AD" transform="translate(99,32)"/>
<path d="M0 0 C4 1 4 1 4 1 Z " fill="#A2CCA2" transform="translate(528,62)"/>
<path d="M0 0 C3 1 3 1 3 1 Z " fill="#C6C6C6" transform="translate(137,92)"/>
<path d="M0 0 C3 1 3 1 3 1 Z " fill="#BFE9BF" transform="translate(145,71)"/>
<path d="M0 0 C0.66 0 1.32 0 2 0 C1.67 0.66 1.34 1.32 1 2 C0.67 1.34 0.34 0.68 0 0 Z " fill="#A9FFA9" transform="translate(662,53)"/>
<path d="M0 0 C3 1 3 1 3 1 Z " fill="#D4FFD4" transform="translate(232,42)"/>
<path d="M0 0 C3 1 3 1 3 1 Z " fill="#D4FFD4" transform="translate(572,35)"/>
<path d="M0 0 C3 1 3 1 3 1 Z " fill="#8D8D8D" transform="translate(299,31)"/>
<path d="M0 0 C3 1 3 1 3 1 Z " fill="#D4D4A9" transform="translate(756,23)"/>
<path d="M0 0 C2 1 2 1 2 1 Z " fill="#BFFFBF" transform="translate(173,86)"/>
<path d="M0 0 C2 1 2 1 2 1 Z " fill="#FFFFFF" transform="translate(124,86)"/>
<path d="M0 0 C2 1 2 1 2 1 Z " fill="#D4D4D4" transform="translate(481,69)"/>
<path d="M0 0 C2 1 2 1 2 1 Z " fill="#7FFF7F" transform="translate(533,62)"/>
<path d="" fill="#7FFF7F" transform="translate(0,0)"/>
<path d="" fill="#9FDF9F" transform="translate(0,0)"/>
<path d="" fill="#BFFFBF" transform="translate(0,0)"/>
<path d="" fill="#D4D4D4" transform="translate(0,0)"/>
<path d="" fill="#BFFFBF" transform="translate(0,0)"/>
<path d="" fill="#AABFAA" transform="translate(0,0)"/>
<path d="M0 0 C2 1 2 1 2 1 Z " fill="#7FFF7F" transform="translate(110,8)"/>
<path d="" fill="#FFFFFF" transform="translate(0,0)"/>
<path d="" fill="#FFFFFF" transform="translate(0,0)"/>
<path d="" fill="#7FFF7F" transform="translate(0,0)"/>
<path d="" fill="#FFFFFF" transform="translate(0,0)"/>
<path d="" fill="#BFBFBF" transform="translate(0,0)"/>
<path d="" fill="#7FFF7F" transform="translate(0,0)"/>
<path d="" fill="#FFFFFF" transform="translate(0,0)"/>
<path d="" fill="#FFFFFF" transform="translate(0,0)"/>
<path d="" fill="#FFFFFF" transform="translate(0,0)"/>
<path d="" fill="#FFFFFF" transform="translate(0,0)"/>
<path d="" fill="#FFFFFF" transform="translate(0,0)"/>
<path d="" fill="#FFFFFF" transform="translate(0,0)"/>
<path d="" fill="#7FFF7F" transform="translate(0,0)"/>
<path d="" fill="#7FFF7F" transform="translate(0,0)"/>
<path d="" fill="#7F7F7F" transform="translate(0,0)"/>
<path d="" fill="#FFFFFF" transform="translate(0,0)"/>
<path d="" fill="#FFFFFF" transform="translate(0,0)"/>
<path d="" fill="#AAAAAA" transform="translate(0,0)"/>
<path d="" fill="#BFBFBF" transform="translate(0,0)"/>
<path d="" fill="#7FFF7F" transform="translate(0,0)"/>
<path d="" fill="#7FFF7F" transform="translate(0,0)"/>
<path d="" fill="#FFFFFF" transform="translate(0,0)"/>
<path d="" fill="#FFFFFF" transform="translate(0,0)"/>
<path d="" fill="#FFFFFF" transform="translate(0,0)"/>
<path d="" fill="#FFFFFF" transform="translate(0,0)"/>
<path d="" fill="#AAAAAA" transform="translate(0,0)"/>
<path d="" fill="#BFBFBF" transform="translate(0,0)"/>
<path d="" fill="#7FFF7F" transform="translate(0,0)"/>
<path d="" fill="#AAAAAA" transform="translate(0,0)"/>
<path d="" fill="#FFFFFF" transform="translate(0,0)"/>
<path d="" fill="#7FFF7F" transform="translate(0,0)"/>
<path d="" fill="#7FFF7F" transform="translate(0,0)"/>
<path d="" fill="#FFFFFF" transform="translate(0,0)"/>
<path d="" fill="#7FFF7F" transform="translate(0,0)"/>
<path d="" fill="#FFFFFF" transform="translate(0,0)"/>
<path d="" fill="#BFBFBF" transform="translate(0,0)"/>
<path d="" fill="#7FFF7F" transform="translate(0,0)"/>
<path d="" fill="#FFFFFF" transform="translate(0,0)"/>
<path d="" fill="#7FFF7F" transform="translate(0,0)"/>
<path d="" fill="#FFFFFF" transform="translate(0,0)"/>
<path d="" fill="#7FBFBF" transform="translate(0,0)"/>
<path d="" fill="#FFFFFF" transform="translate(0,0)"/>
<path d="" fill="#7F7F7F" transform="translate(0,0)"/>
<path d="" fill="#FFFFFF" transform="translate(0,0)"/>
<path d="" fill="#FFFFFF" transform="translate(0,0)"/>
<path d="" fill="#FFFFFF" transform="translate(0,0)"/>
<path d="" fill="#FFFFFF" transform="translate(0,0)"/>
<path d="" fill="#FFFFFF" transform="translate(0,0)"/>
<path d="" fill="#AAAAAA" transform="translate(0,0)"/>
<path d="" fill="#FFFFFF" transform="translate(0,0)"/>
<path d="" fill="#FFFFFF" transform="translate(0,0)"/>
<path d="" fill="#FFFFFF" transform="translate(0,0)"/>
<path d="" fill="#7FFF7F" transform="translate(0,0)"/>
<path d="" fill="#7FFF7F" transform="translate(0,0)"/>
<path d="" fill="#FFFFFF" transform="translate(0,0)"/>
<path d="" fill="#7FFF7F" transform="translate(0,0)"/>
<path d="" fill="#99CC99" transform="translate(0,0)"/>
<path d="" fill="#FFFFFF" transform="translate(0,0)"/>
<path d="" fill="#FFFFFF" transform="translate(0,0)"/>
<path d="" fill="#FFFFFF" transform="translate(0,0)"/>
<path d="" fill="#7FFF7F" transform="translate(0,0)"/>
<path d="" fill="#FFFFFF" transform="translate(0,0)"/>
<path d="" fill="#7FFF7F" transform="translate(0,0)"/>
<path d="" fill="#BFBFBF" transform="translate(0,0)"/>
<path d="" fill="#FFFFFF" transform="translate(0,0)"/>
<path d="" fill="#FFFFFF" transform="translate(0,0)"/>
<path d="" fill="#FFFFFF" transform="translate(0,0)"/>
<path d="" fill="#FFFFFF" transform="translate(0,0)"/>
<path d="" fill="#FFFFFF" transform="translate(0,0)"/>
<path d="" fill="#FFFFFF" transform="translate(0,0)"/>
<path d="" fill="#7F7F7F" transform="translate(0,0)"/>
<path d="" fill="#FFFFFF" transform="translate(0,0)"/>
<path d="" fill="#AAAAAA" transform="translate(0,0)"/>
<path d="" fill="#FFFFFF" transform="translate(0,0)"/>
<path d="" fill="#99CC99" transform="translate(0,0)"/>
<path d="" fill="#FFFFFF" transform="translate(0,0)"/>
<path d="" fill="#7FFF7F" transform="translate(0,0)"/>
<path d="" fill="#AAAAAA" transform="translate(0,0)"/>
<path d="" fill="#FFFFFF" transform="translate(0,0)"/>
<path d="" fill="#FFFFFF" transform="translate(0,0)"/>
<path d="" fill="#B6B6B6" transform="translate(0,0)"/>
<path d="" fill="#FFFFFF" transform="translate(0,0)"/>
<path d="" fill="#FFFFFF" transform="translate(0,0)"/>
<path d="" fill="#FFFFFF" transform="translate(0,0)"/>
<path d="" fill="#FFFFFF" transform="translate(0,0)"/>
<path d="" fill="#FFFFFF" transform="translate(0,0)"/>
<path d="" fill="#FFFFFF" transform="translate(0,0)"/>
<path d="" fill="#FFFFFF" transform="translate(0,0)"/>
<path d="" fill="#AAAAAA" transform="translate(0,0)"/>
<path d="" fill="#AAAAAA" transform="translate(0,0)"/>
<path d="" fill="#FFFFFF" transform="translate(0,0)"/>
<path d="" fill="#FFFFFF" transform="translate(0,0)"/>
<path d="" fill="#FFFFFF" transform="translate(0,0)"/>
<path d="" fill="#7FFF7F" transform="translate(0,0)"/>
<path d="" fill="#7FFF7F" transform="translate(0,0)"/>
<path d="" fill="#FFFFFF" transform="translate(0,0)"/>
<path d="" fill="#FFFFFF" transform="translate(0,0)"/>
<path d="" fill="#AAAAAA" transform="translate(0,0)"/>
<path d="" fill="#FFFFFF" transform="translate(0,0)"/>
<path d="" fill="#AAAAAA" transform="translate(0,0)"/>
<path d="" fill="#7FFF7F" transform="translate(0,0)"/>
<path d="" fill="#7FFF7F" transform="translate(0,0)"/>
<path d="" fill="#FFFFFF" transform="translate(0,0)"/>
<path d="" fill="#FFFFFF" transform="translate(0,0)"/>
<path d="" fill="#FFFFFF" transform="translate(0,0)"/>
<path d="" fill="#FFFFFF" transform="translate(0,0)"/>
<path d="" fill="#FFFFFF" transform="translate(0,0)"/>
<path d="" fill="#FFFFFF" transform="translate(0,0)"/>
<path d="" fill="#FFFFFF" transform="translate(0,0)"/>
<path d="" fill="#7FFF7F" transform="translate(0,0)"/>
<path d="" fill="#FFFFFF" transform="translate(0,0)"/>
<path d="" fill="#FFFFFF" transform="translate(0,0)"/>
<path d="" fill="#FFFFFF" transform="translate(0,0)"/>
<path d="" fill="#AAAAAA" transform="translate(0,0)"/>
<path d="" fill="#FFFFFF" transform="translate(0,0)"/>
<path d="" fill="#7F7F7F" transform="translate(0,0)"/>
<path d="" fill="#7F7F7F" transform="translate(0,0)"/>
<path d="" fill="#7F7F7F" transform="translate(0,0)"/>
<path d="" fill="#FFFFFF" transform="translate(0,0)"/>
<path d="" fill="#FFFFFF" transform="translate(0,0)"/>
<path d="" fill="#7FFF7F" transform="translate(0,0)"/>
<path d="" fill="#7FFF7F" transform="translate(0,0)"/>
<path d="" fill="#FFFFFF" transform="translate(0,0)"/>
<path d="" fill="#FFFFFF" transform="translate(0,0)"/>
<path d="" fill="#FFFFFF" transform="translate(0,0)"/>
<path d="" fill="#AAAAAA" transform="translate(0,0)"/>
<path d="" fill="#FFFFFF" transform="translate(0,0)"/>
<path d="" fill="#7FFF7F" transform="translate(0,0)"/>
<path d="" fill="#FFFFFF" transform="translate(0,0)"/>
<path d="" fill="#FFFFFF" transform="translate(0,0)"/>
<path d="" fill="#AAAAAA" transform="translate(0,0)"/>
<path d="" fill="#FFFFFF" transform="translate(0,0)"/>
<path d="" fill="#7FFF7F" transform="translate(0,0)"/>
<path d="" fill="#FFFFFF" transform="translate(0,0)"/>
<path d="" fill="#7FFF7F" transform="translate(0,0)"/>
<path d="" fill="#7FFF7F" transform="translate(0,0)"/>
<path d="" fill="#AAAAAA" transform="translate(0,0)"/>
<path d="" fill="#FFFFFF" transform="translate(0,0)"/>
<path d="" fill="#FFFFFF" transform="translate(0,0)"/>
<path d="" fill="#7FFF7F" transform="translate(0,0)"/>
<path d="" fill="#AAAAAA" transform="translate(0,0)"/>
<path d="" fill="#AAAAAA" transform="translate(0,0)"/>
<path d="" fill="#AAD4AA" transform="translate(0,0)"/>
<path d="" fill="#FFFFFF" transform="translate(0,0)"/>
<path d="" fill="#7FFF7F" transform="translate(0,0)"/>
<path d="" fill="#FFFFFF" transform="translate(0,0)"/>
<path d="" fill="#AAAAAA" transform="translate(0,0)"/>
<path d="" fill="#FFFFFF" transform="translate(0,0)"/>
<path d="" fill="#FFFFFF" transform="translate(0,0)"/>
<path d="" fill="#7FFF7F" transform="translate(0,0)"/>
<path d="" fill="#7F7F7F" transform="translate(0,0)"/>
<path d="" fill="#FFFFFF" transform="translate(0,0)"/>
<path d="" fill="#AAAAAA" transform="translate(0,0)"/>
<path d="" fill="#BFBF7F" transform="translate(0,0)"/>
<path d="" fill="#FFFFFF" transform="translate(0,0)"/>
<path d="" fill="#7FFF7F" transform="translate(0,0)"/>
<path d="" fill="#FFFFFF" transform="translate(0,0)"/>
<path d="" fill="#AAAAAA" transform="translate(0,0)"/>
<path d="" fill="#AAAAAA" transform="translate(0,0)"/>
<path d="" fill="#7F7F7F" transform="translate(0,0)"/>
<path d="" fill="#FFFFFF" transform="translate(0,0)"/>
<path d="" fill="#7FFF7F" transform="translate(0,0)"/>
<path d="" fill="#FFFFFF" transform="translate(0,0)"/>
<path d="" fill="#7FBF7F" transform="translate(0,0)"/>
<path d="" fill="#AAAAAA" transform="translate(0,0)"/>
</svg>
