<svg xmlns="http://www.w3.org/2000/svg" version="1.1" width="1233" height="159" viewBox="0 0 1233 159">
<path d="M0 0 C2.22503261 2.16686182 4.10320523 4.54367875 6 7 C6.61875 7.78375 7.2375 8.5675 7.875 9.375 C11.35607483 17.49750795 8.01281396 26.2041311 5 34 C-1.06233251 48.07509133 -9.4984246 60.81182804 -18 73.5 C-19.6706915 75.99734086 -21.3376227 78.49711651 -23 81 C-23.42845215 81.64437012 -23.8569043 82.28874023 -24.29833984 82.95263672 C-31.1113271 93.27773544 -38.48375241 104.69834514 -41 117 C-21.21094125 113.86385757 -4.41306953 107.35608088 13.546875 98.62109375 C17.62945681 96.64043878 21.74597387 94.76887955 25.90039062 92.94506836 C29.27942341 91.4241107 32.57375758 89.744024 35.875 88.0625 C42.18524696 84.88184963 48.54287889 81.87252881 55 79 C56.41442604 78.36148178 57.82845282 77.72207875 59.2421875 77.08203125 C69.01809877 72.65954753 78.8154908 68.28491214 88.625 63.9375 C90.27072998 63.20345947 90.27072998 63.20345947 91.94970703 62.45458984 C92.96919434 62.00422363 93.98868164 61.55385742 95.0390625 61.08984375 C95.94865723 60.68628662 96.85825195 60.28272949 97.79541016 59.86694336 C100 59 100 59 102 59 C102 58.34 102 57.68 102 57 C102.59425781 56.84144531 103.18851562 56.68289062 103.80078125 56.51953125 C109.54906937 54.90142837 114.86572417 52.83595457 120.26171875 50.28125 C126.96373571 47.14535619 133.73125821 44.64396832 140.75 42.3125 C141.69488281 41.99216797 142.63976562 41.67183594 143.61328125 41.34179688 C144.51949219 41.03951172 145.42570312 40.73722656 146.359375 40.42578125 C147.17889648 40.15161377 147.99841797 39.87744629 148.84277344 39.5949707 C151 39 151 39 154 39 C154 38.34 154 37.68 154 37 C154.89203125 36.79503906 155.7840625 36.59007812 156.703125 36.37890625 C157.87359375 36.10949219 159.0440625 35.84007812 160.25 35.5625 C161.41015625 35.29566406 162.5703125 35.02882812 163.765625 34.75390625 C164.83296875 34.50511719 165.9003125 34.25632813 167 34 C167.77859375 33.84402344 168.5571875 33.68804687 169.359375 33.52734375 C169.90078125 33.35332031 170.4421875 33.17929687 171 33 C171.33 32.34 171.66 31.68 172 31 C172 31.66 172 32.32 172 33 C173.11375 32.505 173.11375 32.505 174.25 32 C177 31 177 31 181 31 C181.33 30.34 181.66 29.68 182 29 C183.79296875 28.4375 183.79296875 28.4375 186.1875 28 C187.54875 27.74863281 187.54875 27.74863281 188.9375 27.4921875 C192.1810326 26.97090547 195.42964573 26.54704021 198.6875 26.125 C203.78188203 25.43507827 208.56062632 24.35827519 213.5 22.9375 C220.73490441 20.93730546 227.51069732 20.17311956 235 20 C235.80228027 19.97953613 236.60456055 19.95907227 237.43115234 19.93798828 C240.07915967 19.87808757 242.72647386 19.84068874 245.375 19.8125 C246.20733154 19.79928711 247.03966309 19.78607422 247.8972168 19.77246094 C251.94970061 19.7675926 255.55159034 20.02266582 259.4765625 21.07421875 C262.81737245 22.36624194 262.81737245 22.36624194 265 21 C265 21.66 265 22.32 265 23 C265.66 23.226875 266.32 23.45375 267 23.6875 C270.35040457 25.153302 273.26865241 26.98675514 276.328125 28.9765625 C277.81543915 30.08701578 277.81543915 30.08701578 279 30 C279.20496094 30.62648437 279.40992188 31.25296875 279.62109375 31.8984375 C279.89050781 32.71570312 280.15992188 33.53296875 280.4375 34.375 C280.83775391 35.59316406 280.83775391 35.59316406 281.24609375 36.8359375 C281.95179729 39.01031799 281.95179729 39.01031799 283 41 C283.07092842 43.2072923 283.08415025 45.41667452 283.0625 47.625 C283.05347656 48.81351563 283.04445313 50.00203125 283.03515625 51.2265625 C283.01775391 52.59941406 283.01775391 52.59941406 283 54 C282.34 54 281.68 54 281 54 C280.79375 54.804375 280.5875 55.60875 280.375 56.4375 C278.55527854 61.15223286 275.90662451 64.88673995 273 69 C272.18604596 70.17176946 271.37225459 71.34365192 270.55859375 72.515625 C269.68576881 73.76102894 268.81206961 75.00582062 267.9375 76.25 C267.52628906 76.84039062 267.11507812 77.43078125 266.69140625 78.0390625 C264.07670319 81.71963178 261.23731347 84.83306291 258 88 C256.65732468 89.71917938 256.65732468 89.71917938 255.6875 91.3125 C255.130625 92.199375 254.57375 93.08625 254 94 C254.90878906 93.69255859 254.90878906 93.69255859 255.8359375 93.37890625 C260.10558175 92.00605141 264.07385105 90.87994908 268.5625 90.625 C280.29232512 89.69173778 292.07513562 84.75615591 303.11132812 80.88012695 C306.62951665 79.66826224 309.23641447 79 313 79 C313.33 78.34 313.66 77.68 314 77 C316.34375 76.140625 316.34375 76.140625 319.5 75.25 C324.56707025 73.75936403 329.53672864 72.12105631 334.5 70.3125 C345.00449614 66.5204567 355.70080784 63.32411368 366.375 60.05078125 C372.54342254 58.15277185 378.66126174 56.14049508 384.76806641 54.05444336 C408.46513089 45.96783441 432.26103452 38.75411149 456.75488281 33.50073242 C458.91178085 33.01967567 461.04812714 32.48683578 463.1875 31.93359375 C472.15664077 29.73725702 481.37521802 28.85604102 490.57421875 28.24609375 C493.13883649 28.07531071 493.13883649 28.07531071 496 27 C499.61407378 26.72926677 503.22779264 26.55448271 506.84765625 26.37890625 C510.0938543 26.31792428 510.0938543 26.31792428 512 24 C512.33 24.66 512.66 25.32 513 26 C515.44677369 26.59029522 517.83629113 27.07841907 520.3125 27.5 C524.51467267 28.22768356 528.18337992 29.04182913 532 31 C532.66 30.67 533.32 30.34 534 30 C535.66666667 31.66666667 537.33333333 33.33333333 539 35 C539.86625 35.78375 540.7325 36.5675 541.625 37.375 C546.01956786 42.23215395 547.61207616 47.24103643 547.33984375 53.6875 C545.71110437 64.77041627 536.94985744 74.64638187 529 82 C534.1693489 81.59443869 534.1693489 81.59443869 539 80 C540.46759766 80.02513672 540.46759766 80.02513672 541.96484375 80.05078125 C546.93954719 80.11889266 551.69313999 79.11919017 556.5625 78.1875 C557.53614502 78.00590332 558.50979004 77.82430664 559.51293945 77.63720703 C566.01294661 76.4131063 572.48126616 75.0793707 578.94140625 73.66015625 C591.26627219 71 591.26627219 71 597 71 C597.33 70.34 597.66 69.68 598 69 C599.77462819 68.75309521 601.55194035 68.5210778 603.33447266 68.33984375 C609.17798378 67.59482017 614.92707085 66.21738451 620.6875 65 C622.00579663 64.72365882 623.32415561 64.44761496 624.64257812 64.171875 C627.06111004 63.66558407 629.47935713 63.15792914 631.8972168 62.6484375 C636.62835447 61.65969711 641.35911353 60.74375899 646.125 59.9375 C647.67574219 59.67259766 647.67574219 59.67259766 649.2578125 59.40234375 C652 59 652 59 655 59 C655 58.34 655 57.68 655 57 C656.32 57.33 657.64 57.66 659 58 C659.33 57.34 659.66 56.68 660 56 C660.66 56.33 661.32 56.66 662 57 C664.25776198 56.60878611 666.49977494 56.12553061 668.73046875 55.6015625 C669.39911453 55.44714691 670.06776031 55.29273132 670.75666809 55.13363647 C672.90185091 54.63725298 675.04472565 54.13167059 677.1875 53.625 C679.31270292 53.12682637 681.43834201 52.63069033 683.56477356 52.13778687 C685.5079447 51.68670161 687.4496925 51.22949788 689.39135742 50.77197266 C693 50 693 50 696.66381836 49.48632812 C699.53818622 49.06732038 702.02934224 48.46781596 704.7734375 47.5546875 C710.00395364 45.92693352 715.22226063 44.98324643 720.625 44.125 C730.00786509 42.57543011 739.29989334 40.74838996 748.57861328 38.66259766 C754.50734284 37.3708748 760.29924906 36.63700757 766.35131836 36.20825195 C769.26541693 35.97913166 772.07644907 35.53263386 774.9375 34.9375 C778.36949997 34.22832354 781.49249619 33.90588094 785 34 C785.33 33.34 785.66 32.68 786 32 C786.68626465 31.97494385 787.3725293 31.9498877 788.07958984 31.92407227 C791.17825817 31.80828573 794.27660923 31.68548115 797.375 31.5625 C798.45523437 31.52318359 799.53546875 31.48386719 800.6484375 31.44335938 C802.1953125 31.38051758 802.1953125 31.38051758 803.7734375 31.31640625 C804.72653809 31.27974854 805.67963867 31.24309082 806.66162109 31.20532227 C809.02132349 31.14236535 809.02132349 31.14236535 811 30 C812.96422613 29.9025061 814.93179438 29.8692297 816.8984375 29.8671875 C818.10113281 29.86589844 819.30382813 29.86460938 820.54296875 29.86328125 C822.43982422 29.86908203 822.43982422 29.86908203 824.375 29.875 C825.60089844 29.87113281 826.82679687 29.86726563 828.08984375 29.86328125 C857.55422734 29.89452662 857.55422734 29.89452662 870 36 C871.57935557 36.73774282 873.16290547 37.46655658 874.75 38.1875 C875.85601563 38.70376953 875.85601563 38.70376953 876.984375 39.23046875 C879.10752685 40.17833642 879.10752685 40.17833642 882 40 C883.33333333 41.33333333 884.66666667 42.66666667 886 44 C886.9590625 44.185625 886.9590625 44.185625 887.9375 44.375 C891.38083075 45.41843356 893.28717786 47.97895937 895 51 C895.625 54.625 895.625 54.625 895 58 C891.13905307 62.00883608 888.18475896 62.5547433 882.72265625 62.75 C881.99232681 62.77892334 881.26199738 62.80784668 880.50953674 62.83764648 C869.82618478 63.20055822 859.12470298 63.06798372 848.4375 63 C834.91287625 62.9141099 821.4856531 62.86473078 808 64 C807.16654053 64.06783691 806.33308105 64.13567383 805.47436523 64.20556641 C793.02050655 65.31010252 780.71760635 67.44180732 768.40869141 69.58398438 C766.62093685 69.89275528 764.83060333 70.1866715 763.0390625 70.47265625 C758.04795959 71.33872166 753.08993282 72.37111046 748.125 73.375 C732.07280827 76.59546222 732.07280827 76.59546222 725.75 77.8125 C723.94789063 78.16248047 723.94789063 78.16248047 722.109375 78.51953125 C719.33852074 78.94769089 716.79590838 79.09985387 714 79 C713.67 79.66 713.34 80.32 713 81 C709.70064162 81.64552664 706.47713923 81.9649925 703.125 82.2109375 C701.64 82.32308594 701.64 82.32308594 700.125 82.4375 C698.70574219 82.52837891 698.70574219 82.52837891 697.2578125 82.62109375 C696.51273438 82.74613281 695.76765625 82.87117188 695 83 C694.67 83.66 694.34 84.32 694 85 C691.90234375 85.45703125 691.90234375 85.45703125 688.9375 85.8125 C682.47592057 86.71444348 676.13137183 87.95768884 669.75 89.3125 C661.30278253 91.10296805 652.84732571 92.83241649 644.375 94.5 C635.4404294 96.26522253 626.56079699 98.20783198 617.68847656 100.26123047 C610.49141061 101.91631863 603.27826736 103.32781232 596.010849 104.63635254 C583.17436416 106.95773775 570.38649071 109.50526331 557.6027832 112.09863281 C555.32797884 112.55965474 553.05269438 113.0182454 550.77734375 113.4765625 C550.09808334 113.61510651 549.41882294 113.75365051 548.71897888 113.89639282 C540.01796945 115.64566058 531.66711271 116.26814236 522.8125 116.375 C521.0790332 116.43107422 521.0790332 116.43107422 519.31054688 116.48828125 C510.49429857 116.57738426 501.83773722 115.21799108 494.96655273 109.22705078 C493.44259139 107.56804257 492.21371613 105.89510062 491 104 C490.071875 102.63875 490.071875 102.63875 489.125 101.25 C486.68113876 94.18995643 487.53407283 86.93542017 490 80 C490.66 80 491.32 80 492 80 C492.24621094 79.278125 492.49242187 78.55625 492.74609375 77.8125 C494.54829513 73.77017916 497.34745248 70.82754143 500.22265625 67.5 C502.07175484 64.89907012 502.6358888 63.13695807 503 60 C502.34 60 501.68 60 501 60 C501 59.34 501 58.68 501 58 C499.515 58.495 499.515 58.495 498 59 C495.66700175 59.03954234 493.33291811 59.04401732 491 59 C490.67 59.66 490.34 60.32 490 61 C488.93523438 60.94714844 487.87046875 60.89429687 486.7734375 60.83984375 C480.88867136 60.84887342 475.33301052 62.24197783 469.625 63.5625 C467.86978027 63.96033691 467.86978027 63.96033691 466.07910156 64.36621094 C453.62852694 67.23480734 441.30071214 70.55075004 429 74 C427.78828125 74.33902344 426.5765625 74.67804688 425.328125 75.02734375 C421.20056886 76.23363657 417.09933732 77.51396515 413 78.8125 C412.16476807 79.07675781 411.32953613 79.34101562 410.46899414 79.61328125 C403.61667356 81.78907773 396.79255958 84.04043547 389.97900391 86.33496094 C386.19688397 87.6059324 382.41055986 88.8643198 378.625 90.125 C376.4611079 90.84621723 374.29726472 91.56757347 372.13378906 92.29003906 C370.74095069 92.75346858 369.34710829 93.21389442 367.95214844 93.67089844 C362.17360698 95.57219057 356.4505315 97.6171354 350.72460938 99.67089844 C344.58060046 101.8633463 338.41616373 103.9958178 332.25 106.125 C330.39568359 106.76888672 330.39568359 106.76888672 328.50390625 107.42578125 C322.4973209 109.50031923 316.49044187 111.50767073 310.39160156 113.29345703 C307.83915487 114.04751795 305.30267427 114.84415474 302.765625 115.6484375 C254.97577623 130.69115303 254.97577623 130.69115303 236.59375 122.9921875 C230.03629656 119.49324779 225.16500857 115.03478869 221.625 108.4375 C221.41875 107.633125 221.2125 106.82875 221 106 C220.731875 104.989375 220.46375 103.97875 220.1875 102.9375 C219.55864188 89.73147958 226.77377086 78.44533817 234 68 C235.42113344 65.89884757 236.83763408 63.79455584 238.25 61.6875 C238.91515625 60.70136719 239.5803125 59.71523437 240.265625 58.69921875 C241.68031926 56.49752114 242.8580545 54.34549102 244 52 C235.32347361 51.54231567 227.14970871 53.27347082 218.6875 54.9375 C217.22084357 55.21883211 215.75404738 55.49943667 214.28710938 55.77929688 C206.60520954 57.21525107 206.60520954 57.21525107 199 59 C197.76636719 59.32355469 196.53273438 59.64710937 195.26171875 59.98046875 C192.89989726 60.6028424 190.53858858 61.22704939 188.17797852 61.85400391 C183.54918579 63.07981577 178.91546976 64.27439657 174.265625 65.41796875 C162.94612027 68.22786934 152.14297617 71.50857952 141.38085938 76.00537109 C138.74373771 77.10705625 136.09915298 78.1894179 133.453125 79.26953125 C130.58277524 80.44127641 127.71310906 81.61445225 124.84643555 82.79516602 C118.95115679 85.22146664 113.03763514 87.55276871 107.046875 89.734375 C104.41172569 90.82897548 101.92921873 92.03152055 99.390625 93.328125 C92.73165648 96.70110756 85.83327128 99.44334161 78.921875 102.25 C73.25106667 104.57648547 67.7313836 107.0537456 62.2734375 109.84375 C59.05282707 111.48172369 55.78153031 112.98764255 52.5 114.5 C47.22317276 116.93726094 42.01163554 119.46630042 36.85546875 122.15234375 C35 123 35 123 33 123 C32.67 123.66 32.34 124.32 32 125 C30.3180956 125.49099072 28.63400648 125.97591569 26.93896484 126.41943359 C23.86841153 127.33882113 21.14544476 128.82857656 18.3125 130.3125 C12.87789439 133.11095434 7.39334951 135.59803954 1.71875 137.8828125 C-0.67371358 138.86592253 -2.98309417 139.94125615 -5.3125 141.0625 C-19.26357685 147.34815001 -39.8685078 151.93842998 -54.75 146.3125 C-60.14556103 143.68436958 -64.79331122 140.16633192 -68 135 C-68 134.34 -68 133.68 -68 133 C-68.66 133 -69.32 133 -70 133 C-74.25072305 123.08164621 -73.45122225 115.12598195 -70 105 C-68.37920579 101.2846868 -66.51602011 97.71092834 -64.62109375 94.12890625 C-63.01467301 91.1633952 -63.01467301 91.1633952 -62.05737305 88.58422852 C-60.28733665 84.25824485 -57.78490899 80.36989757 -55.375 76.375 C-54.83883057 75.48071289 -54.30266113 74.58642578 -53.75024414 73.66503906 C-50.2838841 67.94473983 -46.59616413 62.58659171 -42.546875 57.265625 C-40.32746242 54.01497021 -39.26006973 50.71388973 -38 47 C-36.54296875 45.41015625 -36.54296875 45.41015625 -35 44 C-29.56675954 38.02343549 -26.0587181 30.99273991 -25 23 C-49.12105785 22.42263425 -70.95199081 27.89801105 -94.01733398 34.4765625 C-99.98632297 36.17652907 -105.96106365 37.75782066 -112 39.1875 C-116.88988553 40.37693162 -121.28776383 41.78254052 -125.79418945 44.01196289 C-128.02706683 45.0121239 -130.19519449 45.69236464 -132.55078125 46.34765625 C-138.27772206 48.02571714 -143.77423919 50.16192174 -149.3125 52.375 C-151.34755577 53.17994158 -153.3827113 53.984631 -155.41796875 54.7890625 C-156.86695557 55.36382324 -156.86695557 55.36382324 -158.34521484 55.95019531 C-161.59789383 57.23643033 -164.85905151 58.49785369 -168.125 59.75 C-169.10984375 60.12898438 -170.0946875 60.50796875 -171.109375 60.8984375 C-173.11617949 61.66319272 -175.12691259 62.41768651 -177.140625 63.1640625 C-183.63798478 65.59664889 -189.95051848 68.29719831 -196.21142578 71.27954102 C-200.03560332 73.0981434 -203.88347283 74.82317297 -207.78222656 76.47558594 C-224.01102269 83.37785804 -239.26300177 92.19526244 -254.5625 100.921875 C-258.25966669 103.02735412 -261.97830526 105.08571152 -265.71875 107.11328125 C-270.04026537 109.46049636 -274.29476292 111.88855302 -278.5 114.4375 C-279.13381592 114.82019043 -279.76763184 115.20288086 -280.4206543 115.59716797 C-288.7218323 120.62710573 -296.87070108 125.79012771 -304.7109375 131.51953125 C-307.06732885 133.04354545 -309.36701439 134.0463568 -312 135 C-312 135.66 -312 136.32 -312 137 C-314.37890625 138.91015625 -314.37890625 138.91015625 -317.5625 141.0625 C-318.59503906 141.77535156 -319.62757813 142.48820313 -320.69140625 143.22265625 C-324.29147204 145.15657589 -326.92666571 145.85435038 -331 146 C-333.67191573 143.96702064 -335.37957853 142.29909848 -336.83203125 139.2578125 C-337.09399845 135.73648599 -335.41617704 133.08812526 -333.8125 130.0625 C-333.50763672 129.45470703 -333.20277344 128.84691406 -332.88867188 128.22070312 C-329.79271801 122.20403806 -326.31650404 118.11548656 -321 114 C-319.15637401 112.3027796 -317.32376335 110.59354623 -315.5 108.875 C-298.30152738 92.98582703 -278.24584737 80.60488323 -258 69 C-256.33177183 68.00260713 -254.66500836 67.00275866 -253 66 C-237.4746577 56.84715114 -221.32027683 49.1568913 -205.0546875 41.41796875 C-202.23214571 40.0748069 -199.43027436 38.71182482 -196.640625 37.30078125 C-193.2946107 35.65252273 -189.85788453 34.36743347 -186.3671875 33.0625 C-183.94561597 32.08419128 -183.94561597 32.08419128 -181.921875 30.41015625 C-179.15575759 28.38054571 -176.35186171 28.43450059 -173 28 C-172.01 27.01 -172.01 27.01 -171 26 C-170.19820312 25.88269531 -169.39640625 25.76539063 -168.5703125 25.64453125 C-163.38793329 24.70898139 -158.74206996 22.66023336 -153.875 20.6875 C-146.80365319 17.86495018 -139.77633781 15.10267951 -132.5 12.8515625 C-129.82696336 11.98211449 -129.82696336 11.98211449 -126.6640625 10.5234375 C-121.7353814 8.47419909 -116.69966302 7.32243319 -111.5234375 6.0625 C-108.22063373 5.06653257 -105.90474866 3.80026299 -103 2 C-100.61328125 1.3046875 -100.61328125 1.3046875 -98.3125 0.875 C-95.96161713 0.42457874 -94.14500978 0.07250489 -92 -1 C-90.11308649 -1.23823601 -88.22574463 -1.47355243 -86.33642578 -1.69189453 C-82.16741609 -2.24166363 -78.06000245 -3.11633726 -73.9375 -3.9375 C-65.31409033 -5.61681547 -56.72999485 -6.98736323 -48 -8 C-46.74123047 -8.16822266 -46.74123047 -8.16822266 -45.45703125 -8.33984375 C-29.19820397 -10.32794156 -13.71084774 -10.0996808 0 0 Z M504 58 C504 58.66 504 59.32 504 60 C504.66 60 505.32 60 506 60 C506 59.34 506 58.68 506 58 C505.34 58 504.68 58 504 58 Z " fill="#FE922C" transform="translate(340,11)" />
<path d="M0 0 C0.99 0 1.98 0 3 0 C0.65408148 2.7710688 -1.14776201 3.52059284 -4.6875 4.1875 C-5.89986328 4.42533203 -5.89986328 4.42533203 -7.13671875 4.66796875 C-8.05904297 4.83232422 -8.05904297 4.83232422 -9 5 C-8.67 5.99 -8.34 6.98 -8 8 C-9.32 8 -10.64 8 -12 8 C-13.051875 8.2784375 -13.051875 8.2784375 -14.125 8.5625 C-16 9 -16 9 -18 8 C-18 7.34 -18 6.68 -18 6 C-17.28972656 5.81824219 -16.57945312 5.63648438 -15.84765625 5.44921875 C-14.46900391 5.07216797 -14.46900391 5.07216797 -13.0625 4.6875 C-12.14597656 4.44386719 -11.22945312 4.20023438 -10.28515625 3.94921875 C-9.15400391 3.47935547 -9.15400391 3.47935547 -8 3 C-7.67 2.01 -7.34 1.02 -7 0 C-4.05610218 -1.17755913 -3.10046087 -1.03348696 0 0 Z " fill="#FD9935" transform="translate(211,25)" />
<path d="M0 0 C2.6015625 -0.29296875 2.6015625 -0.29296875 5.625 -0.1875 C7.12933594 -0.14689453 7.12933594 -0.14689453 8.6640625 -0.10546875 C9.43492187 -0.07066406 10.20578125 -0.03585938 11 0 C7.375 3 7.375 3 4 3 C2.66018514 2.6937566 1.32488113 2.36548445 0 2 C0 2.99 0 3.98 0 5 C-2.40822445 7.92427254 -4.21479387 9.45925627 -8 10 C-8 8.35 -8 6.7 -8 5 C-6.68 5 -5.36 5 -4 5 C-4 4.34 -4 3.68 -4 3 C-3.34 3 -2.68 3 -2 3 C-1.34 2.01 -0.68 1.02 0 0 Z " fill="#FE9C35" transform="translate(560,32)" />
<path d="M0 0 C7.59 0.33 15.18 0.66 23 1 C19.84685215 3.10209857 19.13896919 3.2434761 15.55078125 3.1953125 C14.27944336 3.18564453 14.27944336 3.18564453 12.98242188 3.17578125 C12.10134766 3.15902344 11.22027344 3.14226562 10.3125 3.125 C9.41982422 3.11597656 8.52714844 3.10695313 7.60742188 3.09765625 C5.40467686 3.07409748 3.20247412 3.04120329 1 3 C0.67 2.01 0.34 1.02 0 0 Z " fill="#FD8D20" transform="translate(848,124)" />
<path d="M0 0 C0.66 0.99 1.32 1.98 2 3 C2.99 3 3.98 3 5 3 C5.33 3.66 5.66 4.32 6 5 C2.87819599 5.96661363 0.47916205 5.98988909 -2.75 5.5625 C-3.94882812 5.40974609 -3.94882812 5.40974609 -5.171875 5.25390625 C-5.77515625 5.17011719 -6.3784375 5.08632813 -7 5 C-7 5.99 -7 6.98 -7 8 C-7.99 8 -8.98 8 -10 8 C-10 7.01 -10 6.02 -10 5 C-3.375 2 -3.375 2 0 2 C0 1.34 0 0.68 0 0 Z " fill="#FE9D32" transform="translate(511,42)" />
<path d="M0 0 C0.68707031 0.0721875 1.37414062 0.144375 2.08203125 0.21875 C2.98308594 0.3115625 3.88414062 0.404375 4.8125 0.5 C5.70582031 0.5928125 6.59914063 0.685625 7.51953125 0.78125 C10.75559716 1.06663534 12.88642244 1.03785919 16 0 C16.66 0.33 17.32 0.66 18 1 C18 1.66 18 2.32 18 3 C17.21625 3.309375 16.4325 3.61875 15.625 3.9375 C13.07669872 4.92875038 13.07669872 4.92875038 11 6 C10.34 5.67 9.68 5.34 9 5 C9 4.01 9 3.02 9 2 C7.6078125 2.3403125 7.6078125 2.3403125 6.1875 2.6875 C5.135625 2.790625 4.08375 2.89375 3 3 C1.30078125 1.51953125 1.30078125 1.51953125 0 0 Z " fill="#FD9A3C" transform="translate(852,40)" />
<path d="M0 0 C-0.99 0.495 -0.99 0.495 -2 1 C-2 1.66 -2 2.32 -2 3 C-1.34 3.33 -0.68 3.66 0 4 C0.33 4.66 0.66 5.32 1 6 C-0.60875 5.7215625 -0.60875 5.7215625 -2.25 5.4375 C-5.77348549 4.80259444 -5.77348549 4.80259444 -8.25 5.5625 C-8.8275 5.706875 -9.405 5.85125 -10 6 C-10.99 5.34 -11.98 4.68 -13 4 C-11.35 3.67 -9.7 3.34 -8 3 C-8 2.34 -8 1.68 -8 1 C-5.07175348 0.02391783 -3.04386724 -0.08226668 0 0 Z " fill="#FD9D34" transform="translate(261,9)" />
<path d="M0 0 C0.33 0.99 0.66 1.98 1 3 C-0.89332534 3.81832722 -2.78977733 4.62942268 -4.6875 5.4375 C-5.74324219 5.88996094 -6.79898437 6.34242187 -7.88671875 6.80859375 C-10.61972529 7.85447455 -13.12042337 8.53520748 -16 9 C-16 8.34 -16 7.68 -16 7 C-14.92878906 6.57847656 -13.85757812 6.15695313 -12.75390625 5.72265625 C-11.35671698 5.16940681 -9.95958449 4.61601398 -8.5625 4.0625 C-7.50192383 3.64581055 -7.50192383 3.64581055 -6.41992188 3.22070312 C-2.95326119 2.03777966 -2.95326119 2.03777966 0 0 Z " fill="#FD8E1F" transform="translate(423,108)" />
<path d="M0 0 C0.56332031 0.23074219 1.12664063 0.46148437 1.70703125 0.69921875 C0.92457031 1.25351563 0.14210938 1.8078125 -0.6640625 2.37890625 C-2.18193359 3.46558594 -2.18193359 3.46558594 -3.73046875 4.57421875 C-4.73980469 5.29351562 -5.74914063 6.0128125 -6.7890625 6.75390625 C-9.35093122 8.45519135 -9.35093122 8.45519135 -10.29296875 10.69921875 C-10.95296875 10.69921875 -11.61296875 10.69921875 -12.29296875 10.69921875 C-11.77491768 6.73920122 -10.07016396 5.2886913 -6.98046875 2.88671875 C-6.20058594 2.26152344 -5.42070313 1.63632813 -4.6171875 0.9921875 C-2.29296875 -0.30078125 -2.29296875 -0.30078125 0 0 Z " fill="#FD8E20" transform="translate(42.29296875,107.30078125)" />
<path d="M0 0 C1 3 1 3 -0.21484375 5.69921875 C-0.78332031 6.68535156 -1.35179687 7.67148437 -1.9375 8.6875 C-2.50339844 9.68136719 -3.06929688 10.67523438 -3.65234375 11.69921875 C-4.31943359 12.83810547 -4.31943359 12.83810547 -5 14 C-5.99 13.67 -6.98 13.34 -8 13 C-7.42655063 10.13275314 -7.1385485 9.1385485 -5 7 C-4.34 6.67 -3.68 6.34 -3 6 C-2.29788106 4.34795544 -1.63028587 2.68076231 -1 1 C-0.67 0.67 -0.34 0.34 0 0 Z " fill="#FD8F1E" transform="translate(341,49)" />
<path d="M0 0 C1.49080078 0.02707031 1.49080078 0.02707031 3.01171875 0.0546875 C3.77097656 0.07789063 4.53023437 0.10109375 5.3125 0.125 C3.37995228 2.1495738 1.68091312 3.54605792 -0.6875 5.125 C-3.40381546 4.21956151 -6.03521188 3.20025194 -8.6875 2.125 C-5.26655758 -0.15562828 -4.00562778 -0.09425007 0 0 Z " fill="#FD9C3B" transform="translate(1146.6875,44.875)" />
<path d="M0 0 C0.71542969 0.28746094 1.43085937 0.57492188 2.16796875 0.87109375 C2.71066406 1.09925781 3.25335937 1.32742187 3.8125 1.5625 C3.8125 1.8925 3.8125 2.2225 3.8125 2.5625 C-0.4775 3.2225 -4.7675 3.8825 -9.1875 4.5625 C-9.1875 3.9025 -9.1875 3.2425 -9.1875 2.5625 C-7.8675 2.2325 -6.5475 1.9025 -5.1875 1.5625 C-6.1775 1.5625 -7.1675 1.5625 -8.1875 1.5625 C-6.21070633 -2.39108734 -3.44499571 -1.41188349 0 0 Z " fill="#FDA133" transform="translate(810.1875,43.4375)" />
<path d="M0 0 C1.98 0.66 3.96 1.32 6 2 C5.42655063 4.86724686 5.1385485 5.8614515 3 8 C1.35 6.02 -0.3 4.04 -2 2 C-1.34 2 -0.68 2 0 2 C0 1.34 0 0.68 0 0 Z " fill="#FD9D31" transform="translate(343,21)" />
<path d="M0 0 C0.66 0 1.32 0 2 0 C1.56802365 4.7517398 0.67230705 6.92000054 -3 10 C-3.66 9.34 -4.32 8.68 -5 8 C-4.67 7.34 -4.34 6.68 -4 6 C-3.34 6 -2.68 6 -2 6 C-1.34 4.02 -0.68 2.04 0 0 Z " fill="#FD8D1F" transform="translate(299,118)" />
<path d="M0 0 C0.680625 0.433125 1.36125 0.86625 2.0625 1.3125 C-0.65483757 3.12405838 -2.84345092 4.33146005 -5.9375 5.3125 C-8.09765625 4.86328125 -8.09765625 4.86328125 -9.9375 4.3125 C-3.86310175 -0.9041302 -3.86310175 -0.9041302 0 0 Z " fill="#FD9922" transform="translate(434.9375,103.6875)" />
<path d="M0 0 C0.66 0 1.32 0 2 0 C2 0.66 2 1.32 2 2 C5.96 2 9.92 2 14 2 C14 2.66 14 3.32 14 4 C9.05 4 4.1 4 -1 4 C-0.67 2.68 -0.34 1.36 0 0 Z " fill="#FE8917" transform="translate(586,132)" />
<path d="M0 0 C-0.99 0.495 -0.99 0.495 -2 1 C-1.67 1.99 -1.34 2.98 -1 4 C-1.556875 3.79375 -2.11375 3.5875 -2.6875 3.375 C-5.65834605 2.89324118 -7.25639505 3.87441848 -10 5 C-10.99 4.67 -11.98 4.34 -13 4 C-12.34 4 -11.68 4 -11 4 C-11 3.34 -11 2.68 -11 2 C-7.17010894 0.19769832 -4.21878192 -0.19622241 0 0 Z " fill="#FD8F1E" transform="translate(675,83)" />
<path d="M0 0 C5.94 0 11.88 0 18 0 C17.67 0.99 17.34 1.98 17 3 C11.25 3.125 11.25 3.125 9 2 C7.46331135 1.77532169 5.92031946 1.59203195 4.375 1.4375 C3.55773438 1.35371094 2.74046875 1.26992188 1.8984375 1.18359375 C1.27195312 1.12300781 0.64546875 1.06242187 0 1 C0 0.67 0 0.34 0 0 Z " fill="#FD8D1A" transform="translate(1176,43)" />
<path d="M0 0 C0.66 0.99 1.32 1.98 2 3 C2.598125 2.814375 3.19625 2.62875 3.8125 2.4375 C6 2 6 2 9 3 C5.68629 5.20914 4.6553979 5.22481553 0.8125 5.125 C-0.08855469 5.10695312 -0.98960937 5.08890625 -1.91796875 5.0703125 C-2.60503906 5.04710937 -3.29210937 5.02390625 -4 5 C-3.525625 4.54625 -3.05125 4.0925 -2.5625 3.625 C-0.90972192 2.06741796 -0.90972192 2.06741796 0 0 Z " fill="#FD8B1A" transform="translate(309,153)" />
<path d="M0 0 C2.97 0.495 2.97 0.495 6 1 C-0.95068807 6.27293578 -0.95068807 6.27293578 -6 6 C-5.34 4.68 -4.68 3.36 -4 2 C-3.01 2.33 -2.02 2.66 -1 3 C-0.67 2.01 -0.34 1.02 0 0 Z " fill="#FE8C1C" transform="translate(688,106)" />
<path d="M0 0 C-7.4 6 -7.4 6 -11 6 C-11 5.34 -11 4.68 -11 4 C-9.35546875 2.67578125 -9.35546875 2.67578125 -7.1875 1.3125 C-6.47980469 0.85488281 -5.77210937 0.39726563 -5.04296875 -0.07421875 C-3 -1 -3 -1 0 0 Z " fill="#FE951E" transform="translate(56,99)" />
<path d="M0 0 C0.74507812 0.01353516 1.49015625 0.02707031 2.2578125 0.04101562 C4.08885416 0.07622796 5.91952169 0.13003149 7.75 0.1875 C7.75 0.5175 7.75 0.8475 7.75 1.1875 C5.35468244 1.52495354 2.95885732 1.8575829 0.5625 2.1875 C-0.11103516 2.28289063 -0.78457031 2.37828125 -1.47851562 2.4765625 C-5.09664577 2.97074613 -8.59796401 3.30096131 -12.25 3.1875 C-8.60142562 -0.47067589 -4.85390995 -0.16722835 0 0 Z " fill="#FE9A39" transform="translate(576.25,60.8125)" />
<path d="M0 0 C0.66 0.33 1.32 0.66 2 1 C-0.57784846 3.64752004 -2.91648098 5.94432065 -6 8 C-6.99 7.67 -7.98 7.34 -9 7 C-8.01 6.67 -7.02 6.34 -6 6 C-6 5.34 -6 4.68 -6 4 C-5.01 4 -4.02 4 -3 4 C-3 3.34 -3 2.68 -3 2 C-2.01 1.34 -1.02 0.68 0 0 Z " fill="#FD8C20" transform="translate(36,138)" />
<path d="M0 0 C0.99 0 1.98 0 3 0 C3 0.99 3 1.98 3 3 C1.70990357 3.50403768 0.41786211 4.00309926 -0.875 4.5 C-1.95394531 4.91765625 -1.95394531 4.91765625 -3.0546875 5.34375 C-5 6 -5 6 -7 6 C-7.33 5.01 -7.66 4.02 -8 3 C-5.36 2.67 -2.72 2.34 0 2 C0 1.34 0 0.68 0 0 Z " fill="#FD911C" transform="translate(723,95)" />
<path d="M0 0 C0 0.99 0 1.98 0 3 C-3.50776784 4.60355101 -6.14354879 5.22036864 -10 5 C-8.34220923 2.29518348 -7.54112366 1.15837766 -4.4375 0.25 C-2 0 -2 0 0 0 Z " fill="#FD8D1E" transform="translate(369,134)" />
<path d="M0 0 C0.33 0.66 0.66 1.32 1 2 C0.01 2.495 0.01 2.495 -1 3 C-0.34 3 0.32 3 1 3 C1 3.66 1 4.32 1 5 C-1.64 5.33 -4.28 5.66 -7 6 C-6.67 5.34 -6.34 4.68 -6 4 C-6.33 3.34 -6.66 2.68 -7 2 C-4.69 1.34 -2.38 0.68 0 0 Z " fill="#FEA236" transform="translate(746,58)" />
<path d="M0 0 C0 3.63 0 7.26 0 11 C-0.66 10.67 -1.32 10.34 -2 10 C-1.67 7.69 -1.34 5.38 -1 3 C-1.66 3 -2.32 3 -3 3 C-3.33 3.66 -3.66 4.32 -4 5 C-4.66 3.68 -5.32 2.36 -6 1 C-3.92446352 0.4465236 -2.15634036 0 0 0 Z " fill="#FE8A1B" transform="translate(886,55)" />
<path d="M0 0 C0.928125 0.350625 1.85625 0.70125 2.8125 1.0625 C5.9802953 2.32382628 5.9802953 2.32382628 9 1 C9.33 1.66 9.66 2.32 10 3 C5.66726186 3.92844389 2.33273814 3.92844389 -2 3 C-1.34 2.01 -0.68 1.02 0 0 Z " fill="#FD9936" transform="translate(869,44)" />
<path d="M0 0 C-4.75 3.875 -4.75 3.875 -7 5 C-9.125 4.0625 -9.125 4.0625 -11 3 C-9.73581754 2.30034557 -8.46334598 1.61565237 -7.1875 0.9375 C-6.47980469 0.55464844 -5.77210938 0.17179687 -5.04296875 -0.22265625 C-3 -1 -3 -1 0 0 Z " fill="#FD8D1E" transform="translate(715,100)" />
<path d="M0 0 C0.66 0.33 1.32 0.66 2 1 C1.67 2.98 1.34 4.96 1 7 C0.34 7 -0.32 7 -1 7 C-1.66 8.32 -2.32 9.64 -3 11 C-2.44894091 7.0507432 -1.61064629 3.65079826 0 0 Z " fill="#FE951C" transform="translate(278,98)" />
<path d="M0 0 C1.32 0 2.64 0 4 0 C2.84826645 2.46800047 1.95216435 4.04783565 0 6 C-1.32 6 -2.64 6 -4 6 C-3 4 -3 4 -1 3 C-0.67 2.01 -0.34 1.02 0 0 Z " fill="#FD8E20" transform="translate(869,87)" />
<path d="M0 0 C1.875 0.3125 1.875 0.3125 4 1 C4.66 1.99 5.32 2.98 6 4 C2.7 4.66 -0.6 5.32 -4 6 C-4.33 5.34 -4.66 4.68 -5 4 C-4.360625 3.71125 -3.72125 3.4225 -3.0625 3.125 C-0.84793921 2.17176549 -0.84793921 2.17176549 0 0 Z " fill="#FD9C36" transform="translate(1111,75)" />
<path d="M0 0 C3.0625 0.1875 3.0625 0.1875 5.0625 2.1875 C3.928125 2.31125 2.79375 2.435 1.625 2.5625 C-0.1384375 2.871875 -0.1384375 2.871875 -1.9375 3.1875 C-2.2675 3.8475 -2.5975 4.5075 -2.9375 5.1875 C-3.5 3.25 -3.5 3.25 -3.9375 1.1875 C-2.9375 0.1875 -2.9375 0.1875 0 0 Z " fill="#FD8E1F" transform="translate(825.9375,66.8125)" />
<path d="M0 0 C-1.28813342 0.83878455 -2.58063256 1.67086783 -3.875 2.5 C-4.59429687 2.9640625 -5.31359375 3.428125 -6.0546875 3.90625 C-8 5 -8 5 -10 5 C-9 2 -9 2 -6.125 0.25 C-3 -1 -3 -1 0 0 Z " fill="#FD961D" transform="translate(96,75)" />
<path d="M0 0 C0.53625 0.391875 1.0725 0.78375 1.625 1.1875 C-1.38117269 4.19367269 -4.19881598 3.78335316 -8.375 4.1875 C-8.375 3.5275 -8.375 2.8675 -8.375 2.1875 C-2.95961538 -1.0125 -2.95961538 -1.0125 0 0 Z " fill="#FE9820" transform="translate(519.375,42.8125)" />
<path d="M0 0 C3.625 -0.1875 3.625 -0.1875 7 0 C5.875 1.5 5.875 1.5 4 3 C0.8125 3.1875 0.8125 3.1875 -2 3 C-1.34 2.01 -0.68 1.02 0 0 Z " fill="#FD8E1E" transform="translate(322,152)" />
<path d="M0 0 C0.33 0.99 0.66 1.98 1 3 C-2.22791555 5.1519437 -3.28400809 5.20086443 -7 5 C-4.87219421 2.65941363 -2.88437779 1.29299694 0 0 Z " fill="#FD901E" transform="translate(91,105)" />
<path d="M0 0 C1.11375 0.3403125 1.11375 0.3403125 2.25 0.6875 C2.25 1.6775 2.25 2.6675 2.25 3.6875 C0.93 4.0175 -0.39 4.3475 -1.75 4.6875 C-1.75 4.0275 -1.75 3.3675 -1.75 2.6875 C-3.4 2.6875 -5.05 2.6875 -6.75 2.6875 C-4.29511132 0.41445492 -3.41240272 -0.38777304 0 0 Z " fill="#FD8B19" transform="translate(919.75,85.3125)" />
<path d="M0 0 C-2.96178773 1.67110042 -5.37071192 2.32682752 -8.75 2.625 C-9.54921875 2.69976562 -10.3484375 2.77453125 -11.171875 2.8515625 C-11.77515625 2.90054688 -12.3784375 2.94953125 -13 3 C-8.38322418 -0.07785055 -5.48548106 -1.5672803 0 0 Z " fill="#FE8916" transform="translate(938,83)" />
<path d="M0 0 C-1.28650706 0.69710731 -2.57940665 1.38242876 -3.875 2.0625 C-4.95394531 2.63677734 -4.95394531 2.63677734 -6.0546875 3.22265625 C-6.69664062 3.47917969 -7.33859375 3.73570313 -8 4 C-8.66 3.67 -9.32 3.34 -10 3 C-6.81859267 -0.48439851 -4.56758339 -1.41752588 0 0 Z " fill="#FE901D" transform="translate(437,74)" />
<path d="M0 0 C-0.99 0.33 -1.98 0.66 -3 1 C-3 1.66 -3 2.32 -3 3 C-4.98 3 -6.96 3 -9 3 C-9.33 2.34 -9.66 1.68 -10 1 C-6.52674819 -0.1577506 -3.63932552 -0.06866652 0 0 Z " fill="#FE8E20" transform="translate(523,72)" />
<path d="M0 0 C0.99 0.33 1.98 0.66 3 1 C3.99 1 4.98 1 6 1 C6.66 1.33 7.32 1.66 8 2 C8 2.66 8 3.32 8 4 C5.69 4 3.38 4 1 4 C0.67 2.68 0.34 1.36 0 0 Z " fill="#FE8C1F" transform="translate(831,65)" />
<path d="M0 0 C-1.125 1.5 -1.125 1.5 -3 3 C-6.1875 3.1875 -6.1875 3.1875 -9 3 C-6.07868595 -0.19953443 -4.37453972 -1.45817991 0 0 Z " fill="#FD8D21" transform="translate(187,63)" />
<path d="M0 0 C0 0.66 0 1.32 0 2 C-4.95 3.485 -4.95 3.485 -10 5 C-10 4.34 -10 3.68 -10 3 C-6.27034861 0.96564469 -4.33094958 0 0 0 Z " fill="#FD8B1D" transform="translate(760,55)" />
<path d="M0 0 C1.98 0 3.96 0 6 0 C6 0.66 6 1.32 6 2 C6.66 2.33 7.32 2.66 8 3 C5 5 5 5 2.8125 4.625 C2.214375 4.41875 1.61625 4.2125 1 4 C1.66 3.34 2.32 2.68 3 2 C2.01 1.34 1.02 0.68 0 0 Z " fill="#FE9B35" transform="translate(1076,52)" />
<path d="M0 0 C0.33 0.66 0.66 1.32 1 2 C3.97 1.34 6.94 0.68 10 0 C9 2 9 2 6.25 3.1875 C2.95578208 4.01105448 1.20978295 3.94405381 -2 3 C-1.34 2.67 -0.68 2.34 0 2 C0 1.34 0 0.68 0 0 Z " fill="#FE8F1D" transform="translate(1118,45)" />
<path d="M0 0 C0.33 0 0.66 0 1 0 C0.67 2.31 0.34 4.62 0 7 C-0.99 7.33 -1.98 7.66 -3 8 C-3 6.02 -3 4.04 -3 2 C-2.01 2 -1.02 2 0 2 C0 1.34 0 0.68 0 0 Z " fill="#FC8C1E" transform="translate(344,40)" />
<path d="M0 0 C0.33 0.99 0.66 1.98 1 3 C-0.75 4.125 -0.75 4.125 -3 5 C-5.25 4.125 -5.25 4.125 -7 3 C-2.25 0 -2.25 0 0 0 Z " fill="#FD931E" transform="translate(287,31)" />
<path d="M0 0 C0.99 0.33 1.98 0.66 3 1 C2.1875 3.4375 2.1875 3.4375 1 6 C0.01 6.33 -0.98 6.66 -2 7 C-2.66 6.34 -3.32 5.68 -4 5 C-3.01 5 -2.02 5 -1 5 C-1 4.34 -1 3.68 -1 3 C-0.34 3 0.32 3 1 3 C0.67 2.01 0.34 1.02 0 0 Z " fill="#FD8F1F" transform="translate(878,76)" />
<path d="M0 0 C2 1.375 2 1.375 4 3 C4 3.66 4 4.32 4 5 C3.01 5.33 2.02 5.66 1 6 C0.01 5.34 -0.98 4.68 -2 4 C-1 1 -1 1 0 0 Z " fill="#FE9F23" transform="translate(873,41)" />
<path d="M0 0 C0.33 0.66 0.66 1.32 1 2 C-2.66305234 2.74926071 -5.42355152 3.2380014 -9 2 C-5.86501708 0.14223235 -3.62528568 -0.20140476 0 0 Z " fill="#FE9E28" transform="translate(426,78)" />
<path d="M0 0 C-0.61875 0.268125 -1.2375 0.53625 -1.875 0.8125 C-4.2995233 1.95556848 -4.2995233 1.95556848 -6 5 C-8 4 -8 4 -9 1 C-5.8035914 -0.06546953 -3.34252724 -0.07427838 0 0 Z " fill="#FD9C38" transform="translate(1118,46)" />
<path d="M0 0 C1.32 0 2.64 0 4 0 C4 0.99 4 1.98 4 3 C1.69 3.66 -0.62 4.32 -3 5 C-2 2 -2 2 0 0 Z " fill="#FEA51F" transform="translate(160,40)" />
<path d="M0 0 C0.99 0.33 1.98 0.66 3 1 C3 1.66 3 2.32 3 3 C3.99 3.33 4.98 3.66 6 4 C4.02 4.33 2.04 4.66 0 5 C-0.33 4.01 -0.66 3.02 -1 2 C-0.67 1.34 -0.34 0.68 0 0 Z " fill="#FD9B35" transform="translate(317,152)" />
<path d="M0 0 C-3.18762365 2.12508244 -5.26512223 2.5020163 -9 3 C-7 0 -7 0 -5.0625 -0.75 C-3 -1 -3 -1 0 0 Z " fill="#FC931C" transform="translate(388,127)" />
<path d="M0 0 C2.46800047 1.15173355 4.04783565 2.04783565 6 4 C3.36 4.33 0.72 4.66 -2 5 C-1.67 4.360625 -1.34 3.72125 -1 3.0625 C0.07271225 1.23205433 0.07271225 1.23205433 0 0 Z " fill="#FD9B36" transform="translate(1014,94)" />
<path d="M0 0 C0 0.66 0 1.32 0 2 C-3.57644848 3.2380014 -6.33694766 2.74926071 -10 2 C-10 1.67 -10 1.34 -10 1 C-3.375 -1.125 -3.375 -1.125 0 0 Z " fill="#FE9F2B" transform="translate(881,92)" />
<path d="M0 0 C1.32 0 2.64 0 4 0 C4 0.66 4 1.32 4 2 C0.49223216 3.60355101 -2.14354879 4.22036864 -6 4 C-2.25 2 -2.25 2 0 2 C0 1.34 0 0.68 0 0 Z " fill="#FD8E1D" transform="translate(688,77)" />
<path d="M0 0 C6.0546875 -0.1953125 6.0546875 -0.1953125 8 0 C8.66 0.66 9.32 1.32 10 2 C9.01 2.33 8.02 2.66 7 3 C6.34 2.67 5.68 2.34 5 2 C4.01 2.33 3.02 2.66 2 3 C2 2.34 2 1.68 2 1 C1.34 0.67 0.68 0.34 0 0 Z " fill="#FE9A38" transform="translate(1177,44)" />
<path d="M0 0 C4 1 4 1 4 1 Z " fill="#FECE13" transform="translate(579,63)" />
<path d="M0 0 C1.485 0.99 1.485 0.99 3 2 C2.01 2 1.02 2 0 2 C0 1.34 0 0.68 0 0 Z " fill="#FFBF00" transform="translate(860,36)" />
<path d="M0 0 C0.66 0.66 1.32 1.32 2 2 C1.01 2.495 1.01 2.495 0 3 C0 2.01 0 1.02 0 0 Z " fill="#FFBF0F" transform="translate(853,34)" />
<path d="M0 0 C3 1 3 1 3 1 Z " fill="#FFE21C" transform="translate(835,71)" />
<path d="M0 0 C2 1 2 1 2 1 Z " fill="#FFFF00" transform="translate(350,109)" />
<path d="" fill="#FFCC19" transform="translate(0,0)" />
<path d="M0 0 C2 1 2 1 2 1 Z " fill="#FFBF00" transform="translate(876,90)" />
<path d="M0 0 C2 1 2 1 2 1 Z " fill="#FFBF00" transform="translate(920,83)" />
<path d="M0 0 C2 1 2 1 2 1 Z " fill="#FFBF00" transform="translate(946,77)" />
<path d="M0 0 C2 1 2 1 2 1 Z " fill="#FFFF00" transform="translate(945,75)" />
<path d="M0 0 C2 1 2 1 2 1 Z " fill="#FFBF00" transform="translate(424,75)" />
<path d="M0 0 C2 1 2 1 2 1 Z " fill="#FFBF00" transform="translate(1064,53)" />
<path d="M0 0 C2 1 2 1 2 1 Z " fill="#FFFF00" transform="translate(1161,40)" />
<path d="M0 0 C2 1 2 1 2 1 Z " fill="#FFBF00" transform="translate(331,4)" />
<path d="" fill="#FFFF00" transform="translate(0,0)" />
<path d="" fill="#FFFF00" transform="translate(0,0)" />
<path d="" fill="#FFFF00" transform="translate(0,0)" />
<path d="" fill="#FFFF00" transform="translate(0,0)" />
<path d="" fill="#FFFF00" transform="translate(0,0)" />
<path d="" fill="#FFAA55" transform="translate(0,0)" />
<path d="" fill="#FFFF00" transform="translate(0,0)" />
<path d="" fill="#FFFF00" transform="translate(0,0)" />
<path d="" fill="#FFFF00" transform="translate(0,0)" />
<path d="" fill="#FF7F00" transform="translate(0,0)" />
<path d="" fill="#FFFF00" transform="translate(0,0)" />
<path d="" fill="#FFFF00" transform="translate(0,0)" />
<path d="" fill="#FFFF00" transform="translate(0,0)" />
<path d="" fill="#FFAA55" transform="translate(0,0)" />
<path d="" fill="#FFFF00" transform="translate(0,0)" />
<path d="" fill="#FFFF00" transform="translate(0,0)" />
<path d="" fill="#FFFF00" transform="translate(0,0)" />
<path d="" fill="#FFAA55" transform="translate(0,0)" />
<path d="" fill="#FFFF00" transform="translate(0,0)" />
<path d="" fill="#FFFF00" transform="translate(0,0)" />
<path d="" fill="#FFFF00" transform="translate(0,0)" />
<path d="" fill="#FFFF00" transform="translate(0,0)" />
<path d="" fill="#FFFF00" transform="translate(0,0)" />
<path d="" fill="#FFFF00" transform="translate(0,0)" />
<path d="" fill="#FFAA55" transform="translate(0,0)" />
<path d="" fill="#FF7F00" transform="translate(0,0)" />
<path d="" fill="#FFFF00" transform="translate(0,0)" />
<path d="" fill="#FFAA55" transform="translate(0,0)" />
<path d="" fill="#FF7F00" transform="translate(0,0)" />
<path d="" fill="#FFFF00" transform="translate(0,0)" />
<path d="" fill="#FFAA55" transform="translate(0,0)" />
<path d="" fill="#FFFF00" transform="translate(0,0)" />
<path d="" fill="#FF7F00" transform="translate(0,0)" />
<path d="" fill="#FFFF00" transform="translate(0,0)" />
<path d="" fill="#FFFF00" transform="translate(0,0)" />
<path d="" fill="#FF7F00" transform="translate(0,0)" />
<path d="" fill="#FFFF00" transform="translate(0,0)" />
<path d="" fill="#FFFF00" transform="translate(0,0)" />
<path d="" fill="#FFFF00" transform="translate(0,0)" />
<path d="" fill="#FF7F00" transform="translate(0,0)" />
<path d="" fill="#FF7F00" transform="translate(0,0)" />
<path d="" fill="#FF7F00" transform="translate(0,0)" />
<path d="" fill="#FF7F3F" transform="translate(0,0)" />
<path d="" fill="#FFFF00" transform="translate(0,0)" />
<path d="" fill="#FFFF00" transform="translate(0,0)" />
<path d="" fill="#FF7F00" transform="translate(0,0)" />
<path d="" fill="#FFFF00" transform="translate(0,0)" />
<path d="" fill="#FFFF00" transform="translate(0,0)" />
<path d="" fill="#FFFF00" transform="translate(0,0)" />
<path d="" fill="#FF7F00" transform="translate(0,0)" />
<path d="" fill="#FFFF00" transform="translate(0,0)" />
<path d="" fill="#FFFF00" transform="translate(0,0)" />
<path d="" fill="#FF7F00" transform="translate(0,0)" />
<path d="" fill="#FFFF00" transform="translate(0,0)" />
<path d="" fill="#FF7F00" transform="translate(0,0)" />
<path d="" fill="#FFAA55" transform="translate(0,0)" />
<path d="" fill="#FFFF00" transform="translate(0,0)" />
<path d="" fill="#FF9F3F" transform="translate(0,0)" />
<path d="" fill="#FFFF00" transform="translate(0,0)" />
<path d="" fill="#FFFF00" transform="translate(0,0)" />
<path d="" fill="#FFFF00" transform="translate(0,0)" />
<path d="" fill="#FFAA55" transform="translate(0,0)" />
<path d="" fill="#FFFF00" transform="translate(0,0)" />
<path d="" fill="#FF7F00" transform="translate(0,0)" />
<path d="" fill="#FF7F00" transform="translate(0,0)" />
<path d="" fill="#FF7F00" transform="translate(0,0)" />
<path d="" fill="#FFFF00" transform="translate(0,0)" />
<path d="" fill="#FFFF00" transform="translate(0,0)" />
<path d="" fill="#FFFF00" transform="translate(0,0)" />
<path d="" fill="#FFFF00" transform="translate(0,0)" />
<path d="" fill="#FF7F00" transform="translate(0,0)" />
<path d="" fill="#FF7F00" transform="translate(0,0)" />
<path d="" fill="#FFFF00" transform="translate(0,0)" />
<path d="" fill="#FFFF00" transform="translate(0,0)" />
<path d="" fill="#FFFF00" transform="translate(0,0)" />
<path d="" fill="#FFFF00" transform="translate(0,0)" />
<path d="" fill="#FFAA55" transform="translate(0,0)" />
<path d="" fill="#FFFF00" transform="translate(0,0)" />
<path d="" fill="#FFFF00" transform="translate(0,0)" />
<path d="" fill="#FFFF00" transform="translate(0,0)" />
<path d="" fill="#FFFF00" transform="translate(0,0)" />
<path d="" fill="#FFFF00" transform="translate(0,0)" />
<path d="" fill="#FFFF00" transform="translate(0,0)" />
<path d="" fill="#FF7F3F" transform="translate(0,0)" />
<path d="" fill="#FFFF00" transform="translate(0,0)" />
<path d="" fill="#FFFF00" transform="translate(0,0)" />
<path d="" fill="#FFFF00" transform="translate(0,0)" />
<path d="" fill="#FFFF00" transform="translate(0,0)" />
<path d="" fill="#FF7F00" transform="translate(0,0)" />
<path d="" fill="#FFFF00" transform="translate(0,0)" />
<path d="" fill="#FFFF00" transform="translate(0,0)" />
<path d="" fill="#FFFF00" transform="translate(0,0)" />
<path d="" fill="#FFFF00" transform="translate(0,0)" />
<path d="" fill="#FFFF00" transform="translate(0,0)" />
<path d="" fill="#FF7F00" transform="translate(0,0)" />
<path d="" fill="#FF7F00" transform="translate(0,0)" />
<path d="" fill="#FFFF00" transform="translate(0,0)" />
<path d="" fill="#FFFF00" transform="translate(0,0)" />
<path d="" fill="#FFFF00" transform="translate(0,0)" />
<path d="" fill="#FFFF00" transform="translate(0,0)" />
<path d="" fill="#FFFF00" transform="translate(0,0)" />
<path d="" fill="#FF7F00" transform="translate(0,0)" />
<path d="" fill="#FF7F3F" transform="translate(0,0)" />
<path d="" fill="#FFFF00" transform="translate(0,0)" />
<path d="" fill="#FFFF00" transform="translate(0,0)" />
<path d="" fill="#FFFF00" transform="translate(0,0)" />
<path d="" fill="#FFFF00" transform="translate(0,0)" />
<path d="" fill="#FFAA55" transform="translate(0,0)" />
<path d="" fill="#FFFF00" transform="translate(0,0)" />
<path d="" fill="#FFFF00" transform="translate(0,0)" />
<path d="" fill="#FFFF00" transform="translate(0,0)" />
<path d="" fill="#FFFF00" transform="translate(0,0)" />
<path d="" fill="#FFFF00" transform="translate(0,0)" />
<path d="" fill="#FFFF00" transform="translate(0,0)" />
<path d="" fill="#FFFF00" transform="translate(0,0)" />
<path d="" fill="#FF7F3F" transform="translate(0,0)" />
<path d="" fill="#FFFF00" transform="translate(0,0)" />
<path d="" fill="#FFFF00" transform="translate(0,0)" />
<path d="" fill="#FFFF00" transform="translate(0,0)" />
<path d="" fill="#FF9933" transform="translate(0,0)" />
<path d="" fill="#FFFF00" transform="translate(0,0)" />
<path d="" fill="#FFFF00" transform="translate(0,0)" />
<path d="" fill="#FFAA55" transform="translate(0,0)" />
<path d="" fill="#FFFF00" transform="translate(0,0)" />
<path d="" fill="#FFFF00" transform="translate(0,0)" />
</svg>